<?xml version="1.0" encoding="UTF-8" standalone="no"?>
<!-- Created with Inkscape (http://www.inkscape.org/) -->

<svg
   xmlns:dc="http://purl.org/dc/elements/1.1/"
   xmlns:cc="http://creativecommons.org/ns#"
   xmlns:rdf="http://www.w3.org/1999/02/22-rdf-syntax-ns#"
   xmlns:svg="http://www.w3.org/2000/svg"
   xmlns="http://www.w3.org/2000/svg"
   xmlns:sodipodi="http://sodipodi.sourceforge.net/DTD/sodipodi-0.dtd"
   xmlns:inkscape="http://www.inkscape.org/namespaces/inkscape"
   width="121.63778mm"
   height="164.53557mm"
   viewBox="0 0 431.00001 583.00004"
   id="svg2"
   version="1.1"
   inkscape:version="0.91 r13725"
   sodipodi:docname="furikku_plain_path.svg"
   inkscape:export-filename="/mnt/sda2/home/tarek/eigenedaten/projekte/wiki_commons/g5597.png"
   inkscape:export-xdpi="150"
   inkscape:export-ydpi="150">
  <defs
     id="defs4" />
  <sodipodi:namedview
     id="base"
     pagecolor="#ffffff"
     bordercolor="#666666"
     borderopacity="1.0"
     inkscape:pageopacity="0.0"
     inkscape:pageshadow="2"
     inkscape:zoom="0.7"
     inkscape:cx="506.19626"
     inkscape:cy="360.23756"
     inkscape:document-units="px"
     inkscape:current-layer="text4347-2-1-3-2"
     showgrid="true"
     inkscape:snap-bbox="false"
     inkscape:bbox-paths="false"
     inkscape:bbox-nodes="false"
     inkscape:snap-bbox-midpoints="false"
     inkscape:snap-bbox-edge-midpoints="false"
     inkscape:window-width="1364"
     inkscape:window-height="766"
     inkscape:window-x="0"
     inkscape:window-y="0"
     inkscape:window-maximized="0"
     fit-margin-top="0"
     fit-margin-left="0"
     fit-margin-right="0"
     fit-margin-bottom="0"
     inkscape:snap-nodes="false"
     inkscape:snap-global="false">
    <inkscape:grid
       type="xygrid"
       id="grid3338"
       spacingx="10"
       spacingy="10"
       enabled="false"
       originx="-218"
       originy="-716.9999" />
  </sodipodi:namedview>
  <metadata
     id="metadata7">
    <rdf:RDF>
      <cc:Work
         rdf:about="">
        <dc:format>image/svg+xml</dc:format>
        <dc:type
           rdf:resource="http://purl.org/dc/dcmitype/StillImage" />
        <dc:title></dc:title>
      </cc:Work>
    </rdf:RDF>
  </metadata>
  <g
     inkscape:label="Layer 1"
     inkscape:groupmode="layer"
     id="layer1"
     transform="translate(-110,-110.36222)">
    <path
       style="color:#000000;clip-rule:nonzero;display:inline;overflow:visible;visibility:visible;opacity:1;isolation:auto;mix-blend-mode:normal;color-interpolation:sRGB;color-interpolation-filters:linearRGB;solid-color:#000000;solid-opacity:1;fill:#cccccc;fill-opacity:1;fill-rule:nonzero;stroke:#000000;stroke-width:2;stroke-linecap:butt;stroke-linejoin:miter;stroke-miterlimit:4;stroke-dasharray:none;stroke-dashoffset:0;stroke-opacity:1;color-rendering:auto;image-rendering:auto;shape-rendering:auto;text-rendering:auto;enable-background:accumulate"
       d="m 270.5,111.36222 110,0 c 5.54,0 10,4.46 10,10 l 0,110 c 0,5.54 -4.46,10 -10,10 l -110,0 c -5.54,0 -10,-4.46 -10,-10 l 0,-110 c 0,-5.54 4.46,-10 10,-10 z"
       id="rect3340-6" />
    <g
       style="font-style:normal;font-weight:normal;font-size:15px;line-height:125%;font-family:sans-serif;letter-spacing:0px;word-spacing:0px;writing-mode:lr-tb;fill:#000000;fill-opacity:1;stroke:none;stroke-width:1px;stroke-linecap:butt;stroke-linejoin:miter;stroke-opacity:1"
       id="text4221-4">
      <path
         d="m 306.77441,168.81827 q 6.05469,-0.92774 11.35254,-1.5625 1.5625,-5.90821 2.19727,-10.83985 l 3.95508,0.73243 q -1.09864,5.68847 -2.19727,9.76562 l 0.78125,-0.0488 q 1.36719,-0.0488 2.51465,-0.0488 8.05664,0 8.05664,9.93653 0,9.69238 -2.90527,15.50293 -1.7334,3.44238 -5.44434,3.44238 -3.22266,0 -6.95801,-2.24609 l 0.19532,-4.24805 q 3.85742,2.58789 6.15234,2.58789 1.9043,0 2.90527,-2.05078 2.09961,-4.58984 2.09961,-13.13477 0,-6.49414 -4.29687,-6.49414 -1.44043,0 -4.05274,0.19532 -0.85449,3.36914 -3.00293,8.95996 -3.73535,9.76562 -7.76367,16.28418 l -3.44238,-2.19727 q 5.29785,-7.76367 9.25293,-19.60449 0.19531,-0.48828 1.00097,-2.92969 -3.10058,0.3418 -9.54589,1.63574 l -0.8545,-3.63769 z m 38.94043,12.74414 q -4.46777,-9.93652 -10.98632,-16.89453 l 3.14941,-2.09961 q 6.66504,7.10449 11.25488,16.33301 l -3.41797,2.66113 z"
         style="font-style:normal;font-variant:normal;font-weight:normal;font-stretch:normal;font-size:50px;font-family:TakaoPGothic;-inkscape-font-specification:TakaoPGothic"
         id="path5112" />
    </g>
    <g
       style="font-style:normal;font-weight:normal;font-size:15px;line-height:125%;font-family:sans-serif;letter-spacing:0px;word-spacing:0px;writing-mode:lr-tb;fill:#000000;fill-opacity:1;stroke:none;stroke-width:1px;stroke-linecap:butt;stroke-linejoin:miter;stroke-opacity:1"
       id="text4221-6-5">
      <path
         d="m 268.12158,169.96236 q 3.96973,0 7.42676,-0.57129 -1.27441,-2.62207 -1.72852,-3.75 l 2.15332,-0.68848 q 0.39551,1.01074 1.74317,3.98438 3.16406,-0.73243 5.84473,-2.00684 l 0.99609,1.86035 q -2.59277,1.20117 -5.91797,1.97754 l 0.27832,0.5127 q 0.76172,1.52343 1.25977,2.3291 3.70605,-1.02539 6.44531,-2.3877 l 1.02539,2.00684 q -2.82715,1.28906 -6.41602,2.18262 1.62598,2.73925 4.40918,6.63574 l -1.53808,1.49414 q -2.97364,-1.4209 -6.26953,-2.21192 l 0.48339,-1.65527 q 2.3584,0.60059 4.01368,1.17188 -1.64063,-2.27051 -3.23731,-4.92188 -5.83008,1.14258 -10.85449,1.40625 l -0.4541,-2.18262 q 5.47851,-0.0439 10.2539,-1.02539 -1.23046,-2.21191 -1.55273,-2.90039 -3.86719,0.71778 -7.9541,0.80567 l -0.41016,-2.06543 z m 15.26367,19.79004 q -1.02539,0.0293 -2.12402,0.0293 -6.84082,0 -9.41894,-1.86035 -2.28516,-1.65527 -2.28516,-5.15625 0,-0.24902 0.0586,-0.92285 l 1.97754,0.35156 q -0.0293,0.27832 -0.0293,0.54199 0,2.46094 1.71387,3.54493 2.15332,1.34765 7.67578,1.34765 0.5127,0 2.31446,-0.0586 l 0.11718,2.18262 z"
         style="font-style:normal;font-variant:normal;font-weight:normal;font-stretch:normal;font-size:30px;font-family:TakaoPGothic;-inkscape-font-specification:TakaoPGothic"
         id="path5109" />
    </g>
    <g
       style="font-style:normal;font-weight:normal;font-size:15px;line-height:125%;font-family:sans-serif;letter-spacing:0px;word-spacing:0px;writing-mode:lr-tb;fill:#000000;fill-opacity:1;stroke:none;stroke-width:1px;stroke-linecap:butt;stroke-linejoin:miter;stroke-opacity:1"
       id="text4221-6-1-2">
      <path
         d="m 326.27435,143.59319 q -4.55566,-6.02051 -10.12207,-11.00098 -1.52343,-1.36231 -1.52343,-2.22656 0,-0.83496 1.94824,-2.43164 5.58105,-4.58497 8.73047,-9.62403 l 2.06543,1.52344 q -3.75,5.2002 -9.47754,9.72656 -0.60059,0.49805 -0.60059,0.77637 0,0.29297 1.11328,1.31836 5.84473,5.31738 9.84375,10.04883 l -1.97754,1.88965 z"
         style="font-style:normal;font-variant:normal;font-weight:normal;font-stretch:normal;font-size:30px;font-family:TakaoPGothic;-inkscape-font-specification:TakaoPGothic"
         id="path5106" />
    </g>
    <g
       style="font-style:normal;font-weight:normal;font-size:15px;line-height:125%;font-family:sans-serif;letter-spacing:0px;word-spacing:0px;writing-mode:lr-tb;fill:#000000;fill-opacity:1;stroke:none;stroke-width:1px;stroke-linecap:butt;stroke-linejoin:miter;stroke-opacity:1"
       id="text4221-6-10-6">
      <path
         d="m 369.4165,172.62828 q 1.58204,0.0879 2.8711,0.0879 2.57812,0 5.78613,-0.32226 -0.0293,-3.42774 -0.41016,-6.63575 l 2.40235,0 q 0.26367,3.95508 0.29297,6.29883 2.21191,-0.41015 4.1455,-0.89355 l 0.17579,2.12402 q -1.9043,0.58594 -4.2627,0.89356 0.0293,1.11328 0.0293,2.31445 0,5.49316 -1.25977,8.18847 -1.52344,3.38379 -5.75683,5.49317 l -1.91895,-1.74317 q 4.08691,-1.7871 5.41992,-4.43847 1.25977,-2.43164 1.25977,-7.58789 0,-0.95215 -0.0147,-1.91895 -3.19336,0.32227 -6.45996,0.32227 -1.23047,0 -2.12402,-0.0293 l -0.17579,-2.15332 z m -2.65136,6.29883 1.53808,0.9668 q -2.60742,4.73144 -2.69531,8.04199 l -1.96289,0.43945 q -1.49414,-5.21484 -1.49414,-10.3125 0,-4.26269 1.88965,-12.1875 l 2.22656,0.57129 q -1.88965,7.42676 -1.88965,12.12891 0,2.06543 0.35156,4.40918 l 2.03614,-4.05762 z"
         style="font-style:normal;font-variant:normal;font-weight:normal;font-stretch:normal;font-size:30px;font-family:TakaoPGothic;-inkscape-font-specification:TakaoPGothic"
         id="path5103" />
    </g>
    <g
       style="font-style:normal;font-weight:normal;font-size:15px;line-height:125%;font-family:sans-serif;letter-spacing:0px;word-spacing:0px;writing-mode:lr-tb;fill:#000000;fill-opacity:1;stroke:none;stroke-width:1px;stroke-linecap:butt;stroke-linejoin:miter;stroke-opacity:1"
       id="text4221-6-9-6">
      <path
         d="m 316.02939,213.54045 q 3.53027,0.27832 6.35742,0.27832 3.75,0 7.73438,-0.4541 l 0.51269,2.00684 q -3.95508,1.11328 -7.61719,4.32128 l -1.68457,-1.28906 q 1.84571,-1.55273 3.63282,-2.65136 -2.40235,0.19042 -4.37989,0.19042 -2.47558,0 -4.46777,-0.21972 l -0.0879,-2.18262 z m 16.86035,20.00977 q -4.51172,0.68847 -8.34961,0.68847 -5.31738,0 -8.18848,-1.59668 -2.60742,-1.43554 -2.60742,-3.98437 0,-2.53418 2.34375,-4.92188 l 1.80176,1.14258 q -1.86035,1.68457 -1.86035,3.47168 0,3.54492 8.21777,3.54492 3.94043,0 8.39356,-0.83496 l 0.24902,2.49024 z"
         style="font-style:normal;font-variant:normal;font-weight:normal;font-stretch:normal;font-size:30px;font-family:TakaoPGothic;-inkscape-font-specification:TakaoPGothic"
         id="path5100" />
    </g>
    <path
       style="color:#000000;clip-rule:nonzero;display:inline;overflow:visible;visibility:visible;opacity:1;isolation:auto;mix-blend-mode:normal;color-interpolation:sRGB;color-interpolation-filters:linearRGB;solid-color:#000000;solid-opacity:1;fill:#cccccc;fill-opacity:1;fill-rule:nonzero;stroke:#000000;stroke-width:2;stroke-linecap:butt;stroke-linejoin:miter;stroke-miterlimit:4;stroke-dasharray:none;stroke-dashoffset:0;stroke-opacity:1;color-rendering:auto;image-rendering:auto;shape-rendering:auto;text-rendering:auto;enable-background:accumulate"
       d="m 270.5,261.69559 110,0 c 5.54,0 10,4.46 10,10 l 0,109.99999 c 0,5.54001 -4.46,10.00001 -10,10.00001 l -110,0 c -5.54,0 -10,-4.46 -10,-10.00001 l 0,-109.99999 c 0,-5.54 4.46,-10 10,-10 z"
       id="rect3340-6-3" />
    <g
       style="font-style:normal;font-weight:normal;font-size:15px;line-height:125%;font-family:sans-serif;letter-spacing:0px;word-spacing:0px;writing-mode:lr-tb;fill:#000000;fill-opacity:1;stroke:none;stroke-width:1px;stroke-linecap:butt;stroke-linejoin:miter;stroke-opacity:1"
       id="text4221-7">
      <path
         d="m 331.82324,320.9827 3.6377,0 0.36621,14.64843 q 0.21972,0.0733 0.75683,0.29297 0.21973,0.0732 1.19629,0.46387 4.49219,1.70898 9.59473,4.49219 l -2.19727,3.19824 q -4.56543,-2.85645 -9.2041,-4.8584 l -0.0488,0.70801 q 0,3.83301 -1.19628,5.39551 -1.5625,2.00195 -6.25,2.00195 -5.0293,0 -8.10547,-2.53906 -2.05078,-1.75782 -2.05078,-4.27246 0,-2.75879 2.53906,-4.63868 2.75879,-1.90429 6.86035,-1.90429 1.80664,0 4.39453,0.56152 l -0.29297,-13.5498 z m 0.3418,16.89453 q -2.70996,-0.75684 -4.76074,-0.75684 -2.17285,0 -3.6377,0.80567 -1.85547,0.95214 -1.85547,2.53906 0,1.44043 1.80664,2.56347 1.75782,1.00098 4.39453,1.00098 4.17481,0 4.10157,-3.68652 l -0.0488,-2.46582 z m -24.85352,-22.97364 q 2.44141,0.14649 4.19922,0.14649 2.97852,0 5.2002,-0.21973 1.14746,-3.46679 2.31933,-9.27734 l 3.83301,0.58594 q -0.78125,3.833 -2.09961,8.30078 3.54004,-0.3418 8.1543,-1.44043 l 0.14648,3.58887 q -5.15136,1.07421 -9.39941,1.41601 -4.07715,11.74316 -10.40039,21.09375 l -3.44238,-2.19726 q 5.63964,-7.42188 9.79003,-18.55469 -3.44238,0.14648 -5.98144,0.14648 -1.04981,0 -2.09961,-0.0488 l -0.21973,-3.54004 z m 37.06055,9.13086 q -4.19922,-4.63867 -9.96094,-8.54492 l 2.56348,-2.63672 q 5.83496,3.61328 10.20508,8.30078 l -2.80762,2.88086 z"
         style="font-style:normal;font-variant:normal;font-weight:normal;font-stretch:normal;font-size:50px;font-family:TakaoPGothic;-inkscape-font-specification:TakaoPGothic"
         id="path5096" />
    </g>
    <g
       style="font-style:normal;font-weight:normal;font-size:15px;line-height:125%;font-family:sans-serif;letter-spacing:0px;word-spacing:0px;writing-mode:lr-tb;fill:#000000;fill-opacity:1;stroke:none;stroke-width:1px;stroke-linecap:butt;stroke-linejoin:miter;stroke-opacity:1"
       id="text4221-6-58">
      <path
         d="m 268.95654,339.51447 q -0.77636,-5.44922 -0.77636,-9.93165 0,-5.34667 1.91894,-12.71484 l 2.25586,0.5127 q -1.97754,7.36816 -1.97754,12.56836 0,1.61132 0.23438,3.80859 0.65918,-1.20117 1.97754,-3.54492 l 1.46484,1.02539 q -2.7832,4.73144 -2.7832,7.29492 0,0.43945 0.0293,0.77637 l -2.34375,0.20508 z m 8.15918,-19.32129 q 5.31739,-0.98145 11.58692,-0.98145 l 0.20507,2.29981 q -6.45996,-0.044 -11.54296,0.99609 l -0.24903,-2.31445 z m 13.22754,17.94433 q -2.8418,0.39551 -5.24414,0.39551 -4.24805,0 -6.21094,-1.23047 -2.18261,-1.34765 -2.18261,-5.1709 0,-0.52734 0.0293,-0.98144 l 2.27051,-0.27832 q 0,0.27832 -0.0293,0.80566 -0.0146,0.29297 -0.0146,0.36621 0,2.44629 1.23046,3.31055 1.21582,0.80566 4.46778,0.80566 2.12402,0 5.39062,-0.3955 l 0.29297,2.37304 z"
         style="font-style:normal;font-variant:normal;font-weight:normal;font-stretch:normal;font-size:30px;font-family:TakaoPGothic;-inkscape-font-specification:TakaoPGothic"
         id="path5093" />
    </g>
    <g
       style="font-style:normal;font-weight:normal;font-size:15px;line-height:125%;font-family:sans-serif;letter-spacing:0px;word-spacing:0px;writing-mode:lr-tb;fill:#000000;fill-opacity:1;stroke:none;stroke-width:1px;stroke-linecap:butt;stroke-linejoin:miter;stroke-opacity:1"
       id="text4221-6-1-3">
      <path
         d="m 317.10443,271.45584 q 0.9082,3.19336 1.83106,5.46387 3.38378,-2.60742 7.11914,-3.23731 0.43945,-2.41699 0.62988,-4.55566 l 2.27051,0.23437 q 0,0.0733 -0.0293,0.32227 -0.0732,0.55664 -0.11719,0.99609 -0.17578,1.55274 -0.62988,2.82715 4.57031,0.17578 7.11914,2.54883 2.69531,2.47559 2.69531,6.47461 0,2.62207 -1.02539,4.92187 1.61133,1.18653 2.73926,2.15333 l -1.47949,1.88964 -0.35156,-0.35156 -0.42481,-0.4248 q -0.38086,-0.41016 -0.9375,-0.9961 -0.41016,-0.4248 -0.52734,-0.55664 -2.19727,2.98828 -5.63965,2.98828 -1.47949,0 -2.57813,-0.60058 -1.83105,-0.98145 -1.83105,-2.98828 0,-1.59668 1.23047,-2.63672 1.24511,-1.11328 3.20801,-1.11328 2.08007,0 4.70214,1.46484 0.65918,-1.71387 0.65918,-3.75 0,-4.49707 -3.92578,-6.38672 -1.50879,-0.73242 -3.86719,-0.87891 -1.65527,6.63575 -4.23339,10.83985 0.13183,0.23437 1.02539,1.43555 l -1.50879,1.71386 q -0.27832,-0.35156 -0.68848,-1.02539 l -0.14648,-0.23437 q -2.75391,3.47168 -5.28809,3.47168 -1.55273,0 -2.51953,-1.49414 -0.89355,-1.40625 -0.89355,-3.66211 0,-3.99903 3.6914,-7.92481 -1.34765,-3.19336 -2.25586,-6.02051 l 1.97754,-0.9082 z m 17.08008,16.59668 q -2.21191,-1.43555 -3.80859,-1.43555 -2.00684,0 -2.46094,1.49414 -0.0293,0.0293 -0.0293,0.14649 l 0,0.21973 q 0.0879,1.7871 2.46094,1.7871 2.15332,0 3.83789,-2.21191 z m -15.99609,-7.83691 -0.0293,0.0293 q -0.0293,0.0293 -0.0879,0.0586 0.0293,0 0.0293,0.0439 -2.25585,2.91504 -2.25585,5.99121 0,3.00293 1.37695,3.00293 1.58203,0 4.02832,-3.208 -1.55274,-2.69532 -3.06152,-5.91797 z m 7.4707,-4.67285 q -3.01758,0.65917 -5.99121,3.17871 1.21582,2.76855 2.8125,5.49316 1.94824,-3.39844 3.17871,-8.67187 z"
         style="font-style:normal;font-variant:normal;font-weight:normal;font-stretch:normal;font-size:30px;font-family:TakaoPGothic;-inkscape-font-specification:TakaoPGothic"
         id="path5090" />
    </g>
    <g
       style="font-style:normal;font-weight:normal;font-size:15px;line-height:125%;font-family:sans-serif;letter-spacing:0px;word-spacing:0px;writing-mode:lr-tb;fill:#000000;fill-opacity:1;stroke:none;stroke-width:1px;stroke-linecap:butt;stroke-linejoin:miter;stroke-opacity:1"
       id="text4221-6-10-9">
      <path
         d="m 360.49561,321.73117 q 2.87109,-0.30762 5.84472,-0.89355 l 0.0293,-0.9961 q 0.0879,-2.90039 0.17578,-4.18945 l 2.19727,0.20508 -0.0586,0.80566 q -0.14648,2.63672 -0.17578,3.89649 l 1.37695,1.42089 -0.21972,0.29297 q -0.71778,1.05469 -1.25977,1.91895 -0.0293,0.33691 -0.0293,1.28906 5.1709,-5.52246 9.93165,-5.52246 3.00293,0 4.71679,2.60742 1.49414,2.3291 1.49414,6.03516 0,2.92969 -0.89355,5.40527 1.9043,1.15723 3.09082,2.21192 l -1.47949,1.96289 q -0.9668,-0.98145 -1.15723,-1.14258 -1.20117,-0.9961 -1.20117,-1.02539 -0.0879,-0.11719 -0.16113,-0.11719 -0.0147,0 -0.0586,0.0879 -0.58594,1.23047 -2.18262,2.16797 -1.64062,0.95215 -3.17871,0.95215 -1.90429,0 -3.2959,-0.98145 -1.68457,-1.18652 -1.68457,-2.88574 0,-1.83105 1.61133,-2.91504 1.21582,-0.80566 2.97364,-0.80566 2.02148,0 4.83398,1.37695 0.52734,-1.93359 0.52734,-4.08691 0,-2.8418 -0.96679,-4.61426 -1.17188,-2.13867 -3.38379,-2.13867 -4.18946,0 -9.53614,6.0791 0.0439,5.5957 0.27833,11.63086 l -2.22657,0 -0.0293,-1.74317 q -0.11719,-4.27734 -0.11719,-7.4414 l -0.71778,0.8789 q -2.63671,3.14942 -3.48632,4.292 l -1.64063,-1.83106 q 3.50098,-4.02832 5.84473,-6.51855 l 0,-0.74707 0,-0.80567 q 0,-2.16797 0.0293,-3.03222 -2.15333,0.58593 -5.18555,1.11328 l -0.62988,-2.19727 z m 20.41992,12.99316 q -2.27051,-1.37695 -4.01367,-1.37695 -2.57813,0 -2.57813,1.80176 0,0.62988 0.54199,1.17187 0.83496,0.83497 2.34375,0.83497 2.18262,0 3.70606,-2.43165 z"
         style="font-style:normal;font-variant:normal;font-weight:normal;font-stretch:normal;font-size:30px;font-family:TakaoPGothic;-inkscape-font-specification:TakaoPGothic"
         id="path5087" />
    </g>
    <g
       style="font-style:normal;font-weight:normal;font-size:15px;line-height:125%;font-family:sans-serif;letter-spacing:0px;word-spacing:0px;writing-mode:lr-tb;fill:#000000;fill-opacity:1;stroke:none;stroke-width:1px;stroke-linecap:butt;stroke-linejoin:miter;stroke-opacity:1"
       id="text4221-6-9-5">
      <path
         d="m 325.33115,382.40408 q 10.10742,-1.3916 10.10742,-9.16992 0,-4.81933 -4.04297,-7.0166 -1.74316,-0.89355 -4.05762,-1.11328 -0.71777,7.66113 -3.2666,12.93457 -2.47559,5.12695 -5.28809,5.12695 -1.58203,0 -2.98828,-1.68457 -2.22656,-2.70996 -2.22656,-6.26953 0,-4.79004 3.69141,-8.39355 3.6914,-3.60352 9.53613,-3.60352 4.10156,0 7.0166,2.06543 4.14551,2.88574 4.14551,7.9541 0,9.31641 -11.16211,11.33789 l -1.46484,-2.16797 z m -0.30762,-17.24121 q -3.16406,0.4834 -5.44922,2.37305 -3.7207,3.09082 -3.7207,7.73437 0,2.92969 1.58203,4.7461 0.68847,0.77637 1.33301,0.77637 1.42089,0 3.2666,-3.8086 2.31445,-4.74609 2.98828,-11.82129 z"
         style="font-style:normal;font-variant:normal;font-weight:normal;font-stretch:normal;font-size:30px;font-family:TakaoPGothic;-inkscape-font-specification:TakaoPGothic"
         id="path5084" />
    </g>
    <path
       style="color:#000000;clip-rule:nonzero;display:inline;overflow:visible;visibility:visible;opacity:1;isolation:auto;mix-blend-mode:normal;color-interpolation:sRGB;color-interpolation-filters:linearRGB;solid-color:#000000;solid-opacity:1;fill:#cccccc;fill-opacity:1;fill-rule:nonzero;stroke:#000000;stroke-width:2;stroke-linecap:butt;stroke-linejoin:miter;stroke-miterlimit:4;stroke-dasharray:none;stroke-dashoffset:0;stroke-opacity:1;color-rendering:auto;image-rendering:auto;shape-rendering:auto;text-rendering:auto;enable-background:accumulate"
       d="m 270.5,412.0289 110,0 c 5.54,0 10,4.46 10,10 l 0,110 c 0,5.54 -4.46,10 -10,10 l -110,0 c -5.54,0 -10,-4.46 -10,-10 l 0,-110 c 0,-5.54 4.46,-10 10,-10 z"
       id="rect3340-6-9" />
    <g
       style="font-style:normal;font-weight:normal;font-size:15px;line-height:125%;font-family:sans-serif;letter-spacing:0px;word-spacing:0px;writing-mode:lr-tb;fill:#000000;fill-opacity:1;stroke:none;stroke-width:1px;stroke-linecap:butt;stroke-linejoin:miter;stroke-opacity:1"
       id="text4221-93">
      <path
         d="m 304.23535,474.63632 q 5.63965,-2.07519 10.0586,-3.56445 -3.07618,-7.10449 -4.41895,-9.93652 l 3.61328,-1.46485 q 1.61133,3.39356 4.44336,10.15625 12.45117,-4.10156 17.26074,-4.10156 4.24805,0 6.90918,1.85547 3.2959,2.17285 3.2959,6.29883 0,9.42382 -16.72363,10.40039 l -1.48926,-3.51563 q 14.30664,-0.51269 14.30664,-6.88476 0,-5.00489 -6.64062,-5.00489 -4.19922,0 -15.67383,4.00391 4.83398,12.01172 8.52051,24.14551 l -3.75977,1.29394 q -3.66211,-12.40234 -8.34961,-24.14551 -4.29687,1.61133 -9.81445,3.90625 l -1.53809,-3.44238 z m 25,-9.61914 q -4.10156,-3.93066 -8.6914,-6.49414 l 2.4414,-2.63672 q 4.66309,2.39258 9.05762,6.34766 l -2.80762,2.7832 z"
         style="font-style:normal;font-variant:normal;font-weight:normal;font-stretch:normal;font-size:50px;font-family:TakaoPGothic;-inkscape-font-specification:TakaoPGothic"
         id="path5080" />
    </g>
    <g
       style="font-style:normal;font-weight:normal;font-size:15px;line-height:125%;font-family:sans-serif;letter-spacing:0px;word-spacing:0px;writing-mode:lr-tb;fill:#000000;fill-opacity:1;stroke:none;stroke-width:1px;stroke-linecap:butt;stroke-linejoin:miter;stroke-opacity:1"
       id="text4221-6-1-0">
      <path
         d="m 317.80756,421.74521 q -1.09864,4.96582 -1.09864,8.90625 0,0.92285 0.0293,1.61133 4.07227,-7.48535 10.40039,-8.59864 -0.0293,-1.08398 -0.23437,-3.36914 l -0.0586,-0.83496 2.37305,0 0.0586,0.80567 0.0293,0.65918 0.0879,1.11328 0.0293,0.68847 0.0586,0.77637 q 3.06152,0.23438 5.00977,1.65527 2.97363,2.10938 2.97363,5.87403 0,4.45312 -3.48633,6.48926 -2.06543,1.21582 -5.18555,1.17187 -1.23046,3.70606 -4.37988,5.87402 l -2.00683,-1.49414 q 2.87109,-1.66992 4.13085,-4.77539 -3.25195,-0.98144 -5.44921,-3.63281 l 1.37695,-1.55273 q 1.93359,2.38769 4.58496,3.2373 0.38086,-1.68457 0.38086,-4.7168 0,-2.19726 -0.17578,-6.0205 -3.89649,0.71777 -7.28028,5.09765 -2.82714,3.67676 -2.82714,6.69434 0,1.11328 0.27832,2.3584 l -2.25586,0.30761 q -0.71778,-4.6875 -0.71778,-9.24316 0,-4.92188 1.05469,-9.53613 l 2.29981,0.4541 z m 11.76269,3.80859 q 0.11719,2.97364 0.11719,5.63965 0,3.10547 -0.41016,5.49316 2.63672,-0.0586 4.13086,-1.50878 1.59668,-1.58204 1.59668,-4.14551 0,-4.84863 -5.43457,-5.47852 z"
         style="font-style:normal;font-variant:normal;font-weight:normal;font-stretch:normal;font-size:30px;font-family:TakaoPGothic;-inkscape-font-specification:TakaoPGothic"
         id="path5077" />
    </g>
    <g
       style="font-style:normal;font-weight:normal;font-size:15px;line-height:125%;font-family:sans-serif;letter-spacing:0px;word-spacing:0px;writing-mode:lr-tb;fill:#000000;fill-opacity:1;stroke:none;stroke-width:1px;stroke-linecap:butt;stroke-linejoin:miter;stroke-opacity:1"
       id="text4221-6-45">
      <path
         d="m 277.6076,491.70813 q -5.72753,-5.63965 -5.72753,-13.47656 0,-7.76367 5.72753,-13.40332 l 2.34375,0 q -5.81542,5.72754 -5.81542,13.47656 0,7.67578 5.81542,13.40332 l -2.34375,0 z"
         style="font-style:normal;font-variant:normal;font-weight:normal;font-stretch:normal;font-size:30px;font-family:TakaoPGothic;-inkscape-font-specification:TakaoPGothic"
         id="path5074" />
    </g>
    <g
       style="font-style:normal;font-weight:normal;font-size:15px;line-height:125%;font-family:sans-serif;letter-spacing:0px;word-spacing:0px;writing-mode:lr-tb;fill:#000000;fill-opacity:1;stroke:none;stroke-width:1px;stroke-linecap:butt;stroke-linejoin:miter;stroke-opacity:1"
       id="text4221-6-10-2">
      <path
         d="m 370.81787,491.70813 q 5.81543,-5.72754 5.81543,-13.44727 0,-7.66113 -5.81543,-13.43261 l 2.34375,0 q 5.72754,5.63965 5.72754,13.43261 0,7.80762 -5.72754,13.44727 l -2.34375,0 z"
         style="font-style:normal;font-variant:normal;font-weight:normal;font-stretch:normal;font-size:30px;font-family:TakaoPGothic;-inkscape-font-specification:TakaoPGothic"
         id="path5071" />
    </g>
    <g
       style="font-style:normal;font-weight:normal;font-size:15px;line-height:125%;font-family:sans-serif;letter-spacing:0px;word-spacing:0px;writing-mode:lr-tb;fill:#000000;fill-opacity:1;stroke:none;stroke-width:1px;stroke-linecap:butt;stroke-linejoin:miter;stroke-opacity:1"
       id="text4221-6-9-30">
      <path
         d="m 322.94345,511.4093 2.28516,0 0,6.41602 q 3.58886,-0.26367 6.89941,-1.20117 l 0.68848,2.22656 q -3.25196,0.71777 -7.58789,1.08398 l 0,7.67578 q 3.75,0.9668 8.75976,3.89649 l -1.46484,2.03613 q -2.76856,-1.91894 -5.85938,-3.17871 -0.41015,-0.16113 -0.89355,-0.35156 -0.4834,-0.19043 -0.54199,-0.21973 l 0,0.9668 q 0,3.06152 -1.4795,4.07226 -0.92285,0.61524 -2.90039,0.76172 l -0.24902,0.0293 q -0.11719,0 -0.17578,-0.0146 -0.23438,0 -0.57129,-0.0293 -2.54883,-0.0439 -4.61426,-1.40625 -1.94824,-1.31836 -1.94824,-3.09082 0,-1.875 1.91895,-2.98828 2.10937,-1.25976 5.21484,-1.25976 1.01074,0 2.51953,0.20507 l 0,-15.62988 z m 0,17.75391 q -1.50879,-0.29297 -2.63672,-0.29297 -1.97754,0 -3.32519,0.62988 -1.28907,0.57129 -1.28907,1.49414 0,0.83496 0.83497,1.49414 1.24511,1.02539 3.35449,1.02539 3.06152,0 3.06152,-2.57812 l 0,-1.77246 z"
         style="font-style:normal;font-variant:normal;font-weight:normal;font-stretch:normal;font-size:30px;font-family:TakaoPGothic;-inkscape-font-specification:TakaoPGothic"
         id="path5068" />
    </g>
    <path
       style="color:#000000;clip-rule:nonzero;display:inline;overflow:visible;visibility:visible;opacity:1;isolation:auto;mix-blend-mode:normal;color-interpolation:sRGB;color-interpolation-filters:linearRGB;solid-color:#000000;solid-opacity:1;fill:#cccccc;fill-opacity:1;fill-rule:nonzero;stroke:#000000;stroke-width:2;stroke-linecap:butt;stroke-linejoin:miter;stroke-miterlimit:4;stroke-dasharray:none;stroke-dashoffset:0;stroke-opacity:1;color-rendering:auto;image-rendering:auto;shape-rendering:auto;text-rendering:auto;enable-background:accumulate"
       d="m 270.5,562.36224 110,0 c 5.54,0 10,4.46001 10,10.00001 l 0,109.99999 c 0,5.54 -4.46,10 -10,10 l -110,0 c -5.54,0 -10,-4.46 -10,-10 l 0,-109.99999 c 0,-5.54 4.46,-10.00001 10,-10.00001 z"
       id="rect3340-6-7" />
    <g
       style="font-style:normal;font-weight:normal;font-size:15px;line-height:125%;font-family:sans-serif;letter-spacing:0px;word-spacing:0px;writing-mode:lr-tb;fill:#000000;fill-opacity:1;stroke:none;stroke-width:1px;stroke-linecap:butt;stroke-linejoin:miter;stroke-opacity:1"
       id="text4221-40-3">
      <path
         d="m 306.84766,617.54779 q 5.17578,-0.58594 10.05859,-1.63574 l 0.0488,-1.5625 0.0488,-1.48926 0.0976,-2.46582 0.0488,-1.44043 0.0488,-1.58691 3.71094,0.0488 -0.0488,1.48926 -0.0488,1.29395 -0.0977,2.24609 -0.0488,1.41602 -0.0488,1.63574 3.00293,2.36816 -0.5127,0.58594 q -2.07519,2.44141 -2.58789,3.14941 -0.0488,0.61036 -0.0488,1.41602 l 0,0.43945 0,0.48828 q 7.59278,-5.93261 14.59961,-5.93261 5.15137,0 8.69141,3.24707 3.80859,3.51562 3.80859,9.15527 0,12.57324 -17.45605,16.23535 l -2.51465,-3.44238 q 15.86914,-2.92969 15.86914,-12.8418 0,-3.90625 -2.29492,-6.34765 -2.41699,-2.56348 -6.46973,-2.56348 -6.20117,0 -13.5498,6.15234 -0.0488,0 -0.0977,0.0488 -0.29297,0.24414 -0.65918,0.61035 0,12.6709 0.21973,19.14063 l -3.8086,0 -0.0488,-2.19727 0,-2.85644 q -0.0977,-6.10352 -0.0977,-6.64063 0,-2.36816 0.0488,-3.90625 -2.73438,2.80762 -7.86133,8.83789 l -2.73438,-2.83203 q 5.542,-5.98144 10.59571,-10.54687 l 0,-1.14746 0.0488,-1.66016 q 0,-0.58594 0.0488,-3.32031 0.0244,-1.31836 0.0488,-1.87989 -3.78418,1.07422 -8.95996,2.14844 l -1.0498,-3.85742 z"
         style="font-style:normal;font-variant:normal;font-weight:normal;font-stretch:normal;font-size:50px;font-family:TakaoPGothic;-inkscape-font-specification:TakaoPGothic"
         id="path5064" />
    </g>
    <g
       style="font-style:normal;font-weight:normal;font-size:15px;line-height:125%;font-family:sans-serif;letter-spacing:0px;word-spacing:0px;writing-mode:lr-tb;fill:#000000;fill-opacity:1;stroke:none;stroke-width:1px;stroke-linecap:butt;stroke-linejoin:miter;stroke-opacity:1"
       id="text4221-6-07">
      <path
         d="m 268.38525,620.02484 q 2.10938,0.17578 5.93262,0.17578 1.04004,-2.38769 1.59668,-4.40918 l 2.22656,0.62989 -0.21972,0.60058 q -0.62989,1.72852 -1.25977,3.03223 3.07617,-0.14649 6.72363,-0.95215 l 0.29297,2.06543 q -3.53027,0.70312 -7.96875,0.92285 -1.24511,2.51953 -2.79785,4.80469 2.21192,-1.88965 4.2334,-1.88965 3.16406,0 4.2041,3.83789 3.2666,-1.4209 6.92871,-2.66601 l 1.11328,1.97753 q -4.37988,1.28907 -7.66113,2.66602 0.19043,1.30371 0.24902,4.35059 l -2.25586,0.19043 q 0,-2.18262 -0.0879,-3.57422 -5.18554,2.62207 -5.18554,4.59961 0,2.49023 7.30957,2.49023 2.76855,0 5.77148,-0.39551 l 0.17578,2.18262 q -3.38379,0.36621 -6.18164,0.36621 -9.30176,0 -9.30176,-4.49707 0,-3.38379 7.1045,-6.75293 -0.76172,-2.88574 -2.57813,-2.88574 -3.00293,0 -7.82226,6.44531 l -1.74317,-1.28906 q 3.69141,-4.77539 6.21094,-9.87305 -3.00293,0 -5.03906,-0.11719 l 0.0293,-2.03613 z"
         style="font-style:normal;font-variant:normal;font-weight:normal;font-stretch:normal;font-size:30px;font-family:TakaoPGothic;-inkscape-font-specification:TakaoPGothic"
         id="path5061" />
    </g>
    <g
       style="font-style:normal;font-weight:normal;font-size:15px;line-height:125%;font-family:sans-serif;letter-spacing:0px;word-spacing:0px;writing-mode:lr-tb;fill:#000000;fill-opacity:1;stroke:none;stroke-width:1px;stroke-linecap:butt;stroke-linejoin:miter;stroke-opacity:1"
       id="text4221-6-1-31">
      <path
         d="m 313.2226,593.04047 q 4.80468,-10.70801 11.27929,-22.9834 l 2.31446,1.08398 q -3.64747,6.22559 -6.57715,12.20215 2.3584,-2.21191 4.46777,-2.21191 2.3877,0 3.14941,2.40234 0.38086,1.20117 0.42481,4.27734 0.0439,3.83789 2.06543,3.83789 2.88574,0 5.40527,-6.25488 l 1.91895,1.75781 q -3.28125,6.87012 -7.38282,6.87012 -4.21875,0 -4.21875,-5.84472 l 0,-0.23438 q 0,-4.7168 -1.86035,-4.7168 -3.98437,0 -8.78906,10.7959 l -2.19726,-0.98144 z"
         style="font-style:normal;font-variant:normal;font-weight:normal;font-stretch:normal;font-size:30px;font-family:TakaoPGothic;-inkscape-font-specification:TakaoPGothic"
         id="path5058" />
    </g>
    <g
       style="font-style:normal;font-weight:normal;font-size:15px;line-height:125%;font-family:sans-serif;letter-spacing:0px;word-spacing:0px;writing-mode:lr-tb;fill:#000000;fill-opacity:1;stroke:none;stroke-width:1px;stroke-linecap:butt;stroke-linejoin:miter;stroke-opacity:1"
       id="text4221-6-10-7">
      <path
         d="m 360.92041,627.11462 24.47754,0 0,2.40235 -24.47754,0 0,-2.40235 z"
         style="font-style:normal;font-variant:normal;font-weight:normal;font-stretch:normal;font-size:30px;font-family:TakaoPGothic;-inkscape-font-specification:TakaoPGothic"
         id="path5055" />
    </g>
    <g
       style="font-style:normal;font-weight:normal;font-size:15px;line-height:125%;font-family:sans-serif;letter-spacing:0px;word-spacing:0px;writing-mode:lr-tb;fill:#000000;fill-opacity:1;stroke:none;stroke-width:1px;stroke-linecap:butt;stroke-linejoin:miter;stroke-opacity:1"
       id="text4221-6-9-2">
      <path
         d="m 313.59775,673.12445 q 2.72461,-2.46094 6.29883,-2.46094 2.51953,0 6.26953,2.40235 3.09082,1.94824 4.6582,1.94824 3.2959,0 6.41602,-3.12012 l 0,2.78321 q -2.72461,2.46093 -6.29883,2.46093 -2.66602,0 -6.26953,-2.34375 -3.09082,-2.00683 -4.6875,-2.00683 -3.26661,0 -6.38672,3.12011 l 0,-2.7832 z"
         style="font-style:normal;font-variant:normal;font-weight:normal;font-stretch:normal;font-size:30px;font-family:TakaoPGothic;-inkscape-font-specification:TakaoPGothic"
         id="path5052" />
    </g>
    <path
       style="color:#000000;clip-rule:nonzero;display:inline;overflow:visible;visibility:visible;opacity:1;isolation:auto;mix-blend-mode:normal;color-interpolation:sRGB;color-interpolation-filters:linearRGB;solid-color:#000000;solid-opacity:1;fill:#cccccc;fill-opacity:1;fill-rule:nonzero;stroke:#000000;stroke-width:2;stroke-linecap:butt;stroke-linejoin:miter;stroke-miterlimit:4;stroke-dasharray:none;stroke-dashoffset:0;stroke-opacity:1;color-rendering:auto;image-rendering:auto;shape-rendering:auto;text-rendering:auto;enable-background:accumulate"
       d="m 121,111.36222 110,0 c 5.54,0 10,4.46 10,10 l 0,110 c 0,5.54 -4.46,10 -10,10 l -110,0 c -5.54,0 -10,-4.46 -10,-10 l 0,-110 c 0,-5.54 4.46,-10 10,-10 z"
       id="rect3340" />
    <g
       style="font-style:normal;font-weight:normal;font-size:15px;line-height:125%;font-family:sans-serif;letter-spacing:0px;word-spacing:0px;writing-mode:lr-tb;fill:#000000;fill-opacity:1;stroke:none;stroke-width:1px;stroke-linecap:butt;stroke-linejoin:miter;stroke-opacity:1"
       id="text4221">
      <path
         d="m 158.66602,162.95889 q 2.05078,0.14649 4.05273,0.14649 3.00293,0 5.76172,-0.19532 l 0.0977,-1.09863 0.14649,-1.5625 q 0.12207,-1.24512 0.3418,-3.02734 0.12207,-1.12305 0.14648,-1.41602 l 3.71094,0.24414 q -0.46387,3.68653 -0.75684,6.56739 7.12891,-0.75684 14.25781,-2.70996 l 0.39063,3.44238 q -6.88477,1.7334 -14.99023,2.56347 -0.31739,2.95411 -0.41504,6.44532 3.34472,-1.19629 7.86132,-1.61133 0.41504,-1.31836 0.90332,-3.24707 l 3.68653,0.85449 q -0.1709,0.78125 -0.78125,2.46582 5.20019,0.65918 8.25195,3.02734 4.3457,3.4668 4.3457,9.05762 0,6.15235 -5.20019,10.00977 -4.05274,3.00293 -11.1084,4.0039 l -2.14844,-3.32031 q 6.17676,-0.65918 9.86328,-2.97851 4.6875,-2.92969 4.6875,-7.76368 0,-4.93164 -4.3457,-7.54394 -2.19726,-1.34277 -5.34668,-1.70899 -3.85742,9.08204 -10.15625,15.01465 0.21973,2.2461 0.85449,4.63867 l -3.61328,1.34278 q -0.12207,-0.6836 -0.53711,-3.2959 -4.1748,2.9541 -7.86133,2.9541 -4.44335,0 -4.44335,-5.20019 0,-7.05567 7.54394,-12.74414 1.44043,-1.04981 3.90625,-2.39258 0.0732,-3.34473 0.43945,-7.71485 -3.73535,0.29297 -7.1289,0.29297 -1.31836,0 -2.09961,-0.0488 l -0.31738,-3.49121 z m 9.05761,14.4043 q -1.70898,1.02539 -3.54004,2.9541 -3.90625,3.95508 -4.19922,7.73926 0,0.3418 -0.0732,0.51269 0.0732,0.24415 0.0732,0.58594 0,1.61133 1.44043,1.61133 3.14942,0 6.73829,-3.2959 -0.36622,-3.90625 -0.43946,-10.10742 z m 10.44922,-3.75977 q -3.63769,0.5127 -6.90918,1.85547 0,5.63965 0.21973,8.91114 4.05273,-4.51661 6.68945,-10.76661 z"
         style="font-style:normal;font-variant:normal;font-weight:normal;font-stretch:normal;font-size:50px;font-family:TakaoPGothic;-inkscape-font-specification:TakaoPGothic"
         id="path5048" />
    </g>
    <g
       style="font-style:normal;font-weight:normal;font-size:15px;line-height:125%;font-family:sans-serif;letter-spacing:0px;word-spacing:0px;writing-mode:lr-tb;fill:#000000;fill-opacity:1;stroke:none;stroke-width:1px;stroke-linecap:butt;stroke-linejoin:miter;stroke-opacity:1"
       id="text4221-6">
      <path
         d="m 129.6958,182.2231 q -2.16797,6.21094 -5.1123,6.21094 -1.46485,0 -2.95899,-1.68457 -2.05078,-2.25586 -2.82715,-6.95801 -0.71777,-4.32129 -0.71777,-11.00098 l 2.49023,0 q -0.0439,8.75977 1.14258,12.96387 1.15723,4.07226 2.8711,4.07226 1.59668,0 3.03222,-5.21484 l 2.08008,1.61133 z m 9.41895,0.71777 q -2.25586,-6.38672 -6.29883,-11.79199 l 2.12402,-1.04004 q 4.05762,4.96582 6.5332,11.57227 l -2.35839,1.25976 z"
         style="font-style:normal;font-variant:normal;font-weight:normal;font-stretch:normal;font-size:30px;font-family:TakaoPGothic;-inkscape-font-specification:TakaoPGothic"
         id="path5045" />
    </g>
    <g
       style="font-style:normal;font-weight:normal;font-size:15px;line-height:125%;font-family:sans-serif;letter-spacing:0px;word-spacing:0px;writing-mode:lr-tb;fill:#000000;fill-opacity:1;stroke:none;stroke-width:1px;stroke-linecap:butt;stroke-linejoin:miter;stroke-opacity:1"
       id="text4221-6-1">
      <path
         d="m 177.09662,123.55412 q -3.2959,-2.05078 -8.21777,-3.53027 l 1.11328,-2.05078 q 4.51172,1.33301 8.36425,3.45703 l -1.25976,2.12402 z m -12.77344,4.32129 q 7.96875,-2.69531 11.2207,-2.69531 3.2959,0 4.86329,2.09473 1.14257,1.55273 1.14257,3.99902 0,9.47754 -10.44433,12.53906 l -1.59668,-2.10937 q 9.60937,-2.10938 9.60937,-10.38575 0,-4.04296 -3.7207,-4.04296 -2.92969,0 -10.01953,2.94433 l -1.05469,-2.34375 z"
         style="font-style:normal;font-variant:normal;font-weight:normal;font-stretch:normal;font-size:30px;font-family:TakaoPGothic;-inkscape-font-specification:TakaoPGothic"
         id="path5042" />
    </g>
    <g
       style="font-style:normal;font-weight:normal;font-size:15px;line-height:125%;font-family:sans-serif;letter-spacing:0px;word-spacing:0px;writing-mode:lr-tb;fill:#000000;fill-opacity:1;stroke:none;stroke-width:1px;stroke-linecap:butt;stroke-linejoin:miter;stroke-opacity:1"
       id="text4221-6-10">
      <path
         d="m 224.95557,170.05016 q -3.51563,-2.09473 -7.76368,-3.41309 l 1.18653,-1.86035 q 3.92578,1.09863 7.89551,3.2666 l -1.31836,2.00684 z m -10.64942,2.91503 q 5.71289,-0.35156 11.99707,-1.31835 l 1.56739,1.77246 q -2.49024,2.44629 -6.63575,6.958 1.31836,-0.48339 2.25586,-0.48339 2.59278,0 2.63672,2.94433 l 0.0586,2.54883 q 0.0439,1.18652 0.86425,1.40625 0.60059,0.17578 1.88965,0.17578 1.99219,0 4.77539,-0.51269 l 0.20508,2.40234 q -2.27051,0.33691 -4.24805,0.33691 -2.94433,0 -4.1455,-0.60058 -1.43555,-0.71778 -1.53809,-2.66602 l -0.0879,-2.34375 q -0.0439,-1.86035 -1.37695,-1.86035 -2.417,0 -9.50684,7.85156 l -1.80176,-1.64062 q 6.16699,-5.94727 13.40332,-14.13574 -4.89258,0.95214 -9.71191,1.53808 l -0.60059,-2.37305 z"
         style="font-style:normal;font-variant:normal;font-weight:normal;font-stretch:normal;font-size:30px;font-family:TakaoPGothic;-inkscape-font-specification:TakaoPGothic"
         id="path5039" />
    </g>
    <g
       style="font-style:normal;font-weight:normal;font-size:15px;line-height:125%;font-family:sans-serif;letter-spacing:0px;word-spacing:0px;writing-mode:lr-tb;fill:#000000;fill-opacity:1;stroke:none;stroke-width:1px;stroke-linecap:butt;stroke-linejoin:miter;stroke-opacity:1"
       id="text4221-6-9">
      <path
         d="m 170.20615,211.34319 2.22656,0 0,4.86328 q 2.94433,-0.4834 5.09765,-1.08399 l 0.20508,2.09473 q -3.208,0.79101 -5.30273,1.02539 l 0,4.49707 q 2.79785,-0.92285 5.69824,-0.92285 2.97363,0 4.98047,1.05469 2.94434,1.49414 2.94434,4.61425 0,6.65039 -10.38575,7.23633 l -1.05468,-2.16797 q 3.31054,0 5.65429,-0.86425 3.35449,-1.30372 3.35449,-4.11622 0,-3.83789 -5.66894,-3.83789 -2.69531,0 -5.52246,0.9961 l 0,7.38281 q 0,2.63672 -2.34375,2.63672 -0.0879,0 -0.21973,-0.0293 -0.19043,0 -0.29297,-0.0147 -2.05078,0 -3.98437,-1.52343 -1.71387,-1.34766 -1.71387,-2.94434 0,-3.82324 6.32813,-6.65039 l 0,-5.06836 q -2.53418,0.29297 -5.40528,0.29297 l 0,-2.12402 0.33692,0 q 2.88574,0 5.06836,-0.21973 l 0,-5.12695 z m 0,14.31152 q -4.04297,1.8457 -4.04297,4.52637 0,0.71777 0.65918,1.37695 1.05468,1.05469 2.3291,1.05469 1.05469,0 1.05469,-1.06934 l 0,-5.88867 z m 15.51269,-5.58106 q -2.70996,-2.92968 -6.26953,-5.18554 l 1.43555,-1.59668 q 3.38379,2.00683 6.45996,4.98047 l -1.62598,1.80175 z"
         style="font-style:normal;font-variant:normal;font-weight:normal;font-stretch:normal;font-size:30px;font-family:TakaoPGothic;-inkscape-font-specification:TakaoPGothic"
         id="path5036" />
    </g>
    <path
       style="color:#000000;clip-rule:nonzero;display:inline;overflow:visible;visibility:visible;opacity:1;isolation:auto;mix-blend-mode:normal;color-interpolation:sRGB;color-interpolation-filters:linearRGB;solid-color:#000000;solid-opacity:1;fill:#cccccc;fill-opacity:1;fill-rule:nonzero;stroke:#000000;stroke-width:2;stroke-linecap:butt;stroke-linejoin:miter;stroke-miterlimit:4;stroke-dasharray:none;stroke-dashoffset:0;stroke-opacity:1;color-rendering:auto;image-rendering:auto;shape-rendering:auto;text-rendering:auto;enable-background:accumulate"
       d="m 121,261.69559 110,0 c 5.54,0 10,4.46 10,10 l 0,109.99999 c 0,5.54001 -4.46,10.00001 -10,10.00001 l -110,0 c -5.54,0 -10,-4.46 -10,-10.00001 l 0,-109.99999 c 0,-5.54 4.46,-10 10,-10 z"
       id="rect3340-5" />
    <g
       style="font-style:normal;font-weight:normal;font-size:15px;line-height:125%;font-family:sans-serif;letter-spacing:0px;word-spacing:0px;writing-mode:lr-tb;fill:#000000;fill-opacity:1;stroke:none;stroke-width:1px;stroke-linecap:butt;stroke-linejoin:miter;stroke-opacity:1"
       id="text4221-13">
      <path
         d="m 157.49414,314.3909 q 3.54004,0.31738 6.78711,0.31738 1.87988,0 4.29687,-0.1709 1.24512,-4.83398 2.05079,-8.88671 l 3.95507,0.68359 q -0.53711,2.29492 -2.00195,7.91016 4.61426,-0.56153 8.10547,-1.39161 l 0.24414,3.68653 q -4.49219,0.83008 -9.30176,1.19629 -5.34668,17.99316 -10.79101,28.90625 l -3.90625,-1.70899 q 6.0791,-10.71777 10.74218,-26.92871 -2.75878,0.14649 -5.7373,0.14649 -1.14746,0 -4.3457,-0.0977 l -0.0977,-3.66211 z m 39.59961,30.59082 q -5.41992,0.70801 -9.05762,0.70801 -7.61718,0 -10.86426,-2.70996 -2.68554,-2.31934 -3.58886,-7.6416 l 3.54004,-1.48926 q 0.53711,4.88281 2.9541,6.49414 2.24609,1.48926 7.66601,1.48926 3.51563,0 9.13086,-0.73243 l 0.21973,3.88184 z m -20.94727,-21.24023 q 8.39844,-2.73438 18.09082,-2.66114 l 0,3.71094 -0.19531,0 q -9.13086,0 -17.30957,2.39258 l -0.58594,-3.44238 z"
         style="font-style:normal;font-variant:normal;font-weight:normal;font-stretch:normal;font-size:50px;font-family:TakaoPGothic;-inkscape-font-specification:TakaoPGothic"
         id="path5032" />
    </g>
    <g
       style="font-style:normal;font-weight:normal;font-size:15px;line-height:125%;font-family:sans-serif;letter-spacing:0px;word-spacing:0px;writing-mode:lr-tb;fill:#000000;fill-opacity:1;stroke:none;stroke-width:1px;stroke-linecap:butt;stroke-linejoin:miter;stroke-opacity:1"
       id="text4221-6-3">
      <path
         d="m 116.96631,320.19318 q 2.65137,0.21972 6.21094,0.21972 l 0.57129,0 0.17578,-0.8789 q 0.46875,-2.27051 0.74707,-4.16016 l 2.25586,0.32227 q -0.46875,2.57812 -0.90821,4.6289 4.73145,-0.21972 9.18457,-1.14258 l 0.27832,2.15332 q -4.61425,0.83497 -9.96093,1.05469 -0.74707,3.17871 -2.16797,7.44141 4.36523,-2.88574 8.95019,-2.88574 2.65137,0 4.37989,1.02539 2.60742,1.47949 2.60742,4.49707 0,7.17773 -14.16504,7.61718 l -1.02539,-2.12402 q 12.81738,-0.23437 12.81738,-5.52246 0,-3.57422 -4.98047,-3.57422 -2.65137,0 -5.55176,1.46485 -2.62207,1.34765 -4.35058,2.88574 l -1.91895,-1.37696 q 1.9336,-4.73144 3.14942,-9.36035 -4.24805,0 -6.21094,-0.11718 l -0.0879,-2.16797 z"
         style="font-style:normal;font-variant:normal;font-weight:normal;font-stretch:normal;font-size:30px;font-family:TakaoPGothic;-inkscape-font-specification:TakaoPGothic"
         id="path5029" />
    </g>
    <g
       style="font-style:normal;font-weight:normal;font-size:15px;line-height:125%;font-family:sans-serif;letter-spacing:0px;word-spacing:0px;writing-mode:lr-tb;fill:#000000;fill-opacity:1;stroke:none;stroke-width:1px;stroke-linecap:butt;stroke-linejoin:miter;stroke-opacity:1"
       id="text4221-6-1-4">
      <path
         d="m 164.22064,275.92361 q 9.93164,-2.69531 14.97071,-2.69531 3.45703,0 5.66894,1.71387 2.72461,2.09473 2.72461,5.87402 0,4.76074 -4.46777,7.47071 -4.01368,2.41699 -11.22071,2.91503 l -1.17187,-2.34375 q 14.34082,-0.62988 14.34082,-8.04199 0,-2.60742 -1.68457,-4.11621 -1.55274,-1.37695 -4.35059,-1.37695 -5.02441,0 -13.75488,2.94433 l -1.05469,-2.34375 z"
         style="font-style:normal;font-variant:normal;font-weight:normal;font-stretch:normal;font-size:30px;font-family:TakaoPGothic;-inkscape-font-specification:TakaoPGothic"
         id="path5026" />
    </g>
    <g
       style="font-style:normal;font-weight:normal;font-size:15px;line-height:125%;font-family:sans-serif;letter-spacing:0px;word-spacing:0px;writing-mode:lr-tb;fill:#000000;fill-opacity:1;stroke:none;stroke-width:1px;stroke-linecap:butt;stroke-linejoin:miter;stroke-opacity:1"
       id="text4221-6-10-38">
      <path
         d="m 210.79053,320.14914 q 11.23535,-1.55273 22.89551,-2.46094 l 0.20507,2.15332 q -5.25879,0.32227 -8.24707,2.46094 -4.46777,3.25195 -4.46777,7.77832 0,3.48633 2.31445,5.12695 2.28516,1.56739 7.39746,1.88965 l 0.17578,2.49024 q -12.31933,-0.542 -12.31933,-9.21387 0,-5.97656 6.62109,-10.07813 -7.67578,1.02539 -14.09179,2.09473 l -0.4834,-2.24121 z"
         style="font-style:normal;font-variant:normal;font-weight:normal;font-stretch:normal;font-size:30px;font-family:TakaoPGothic;-inkscape-font-specification:TakaoPGothic"
         id="path5023" />
    </g>
    <g
       style="font-style:normal;font-weight:normal;font-size:15px;line-height:125%;font-family:sans-serif;letter-spacing:0px;word-spacing:0px;writing-mode:lr-tb;fill:#000000;fill-opacity:1;stroke:none;stroke-width:1px;stroke-linecap:butt;stroke-linejoin:miter;stroke-opacity:1"
       id="text4221-6-9-1">
      <path
         d="m 183.19931,384.33768 q -4.79004,0.60058 -8.30566,0.60058 -4.55567,0 -7.0752,-0.86425 -3.54492,-1.21583 -3.54492,-4.59961 0,-4.49707 7.07519,-8.0127 -2.10937,-4.99512 -3.208,-9.84375 l 2.43164,-0.4834 q 0.9375,4.7461 2.79785,9.38965 3.2666,-1.37695 8.15918,-2.75391 l 1.04004,2.19727 q -15.92285,3.82324 -15.92285,9.33105 0,3.41309 7.64648,3.41309 3.76465,0 8.49609,-0.74707 l 0.41016,2.37305 z"
         style="font-style:normal;font-variant:normal;font-weight:normal;font-stretch:normal;font-size:30px;font-family:TakaoPGothic;-inkscape-font-specification:TakaoPGothic"
         id="path5020" />
    </g>
    <path
       style="color:#000000;clip-rule:nonzero;display:inline;overflow:visible;visibility:visible;opacity:1;isolation:auto;mix-blend-mode:normal;color-interpolation:sRGB;color-interpolation-filters:linearRGB;solid-color:#000000;solid-opacity:1;fill:#cccccc;fill-opacity:1;fill-rule:nonzero;stroke:#000000;stroke-width:2;stroke-linecap:butt;stroke-linejoin:miter;stroke-miterlimit:4;stroke-dasharray:none;stroke-dashoffset:0;stroke-opacity:1;color-rendering:auto;image-rendering:auto;shape-rendering:auto;text-rendering:auto;enable-background:accumulate"
       d="m 121,412.0289 110,0 c 5.54,0 10,4.46 10,10 l 0,110 c 0,5.54 -4.46,10 -10,10 l -110,0 c -5.54,0 -10,-4.46 -10,-10 l 0,-110 c 0,-5.54 4.46,-10 10,-10 z"
       id="rect3340-62" />
    <g
       style="font-style:normal;font-weight:normal;font-size:15px;line-height:125%;font-family:sans-serif;letter-spacing:0px;word-spacing:0px;writing-mode:lr-tb;fill:#000000;fill-opacity:1;stroke:none;stroke-width:1px;stroke-linecap:butt;stroke-linejoin:miter;stroke-opacity:1"
       id="text4221-138">
      <path
         d="m 177.61133,456.27695 0.19531,7.2998 q 5.93262,-0.39062 12.59766,-1.5625 l 0.29297,3.4668 q -5.49317,0.83008 -12.8418,1.3916 l 0.14648,6.20117 q 5.78614,-0.53711 10.40039,-1.3916 l 0.24414,3.44238 q -5.00488,0.8545 -10.54687,1.24512 l 0.21973,8.59375 q 0.0244,0.0244 0.26855,0.0977 0.21973,0.0732 0.41504,0.1709 0.51269,0.19531 0.85449,0.34179 0.19531,0.0977 0.80567,0.29297 5.27343,2.22168 10.64453,5.76172 l -2.39258,3.34473 q -4.71192,-3.54004 -9.15527,-5.59082 -0.12207,-0.0488 -0.3418,-0.1709 -0.14649,-0.0732 -0.21973,-0.0977 -0.31738,-0.14648 -0.78125,-0.29297 0,4.63867 -2.05078,6.44531 -2.14844,1.85547 -6.73828,1.85547 -5.07813,0 -8.03223,-1.61132 -3.61328,-2.02637 -3.61328,-5.59082 0,-2.80762 2.61231,-4.58985 3.05175,-2.09961 8.27636,-2.09961 2.39258,0 5.73731,0.6836 l -0.14649,-7.29981 q -3.66211,0.1709 -6.49414,0.1709 -3.75976,0 -7.73925,-0.26856 l 0,-3.39355 q 4.05273,0.36621 8.54492,0.36621 2.58789,0 5.63965,-0.1709 -0.0488,-0.43945 -0.0488,-2.00195 0,-1.29395 -0.0488,-2.49023 -0.0488,-0.48829 -0.0488,-1.70899 -5.20019,0.12207 -6.83594,0.12207 -4.39453,0 -9.91211,-0.26855 l 0,-3.39356 q 5.22461,0.36621 10.59571,0.36621 1.44043,0 6.00586,-0.12207 l -0.0732,-1.29394 -0.0977,-1.44043 -0.0977,-2.17285 -0.0488,-1.29395 -0.0976,-1.34277 3.90625,0 z m -2.9541,31.15234 q -3.75977,-1.00098 -5.98145,-1.00098 -3.19824,0 -5.34668,1.29395 -1.48926,0.90332 -1.48926,2.14844 0,1.46484 1.68457,2.51465 2.14844,1.3916 5.63965,1.3916 5.49317,0 5.49317,-4.05274 l 0,-2.29492 z"
         style="font-style:normal;font-variant:normal;font-weight:normal;font-stretch:normal;font-size:50px;font-family:TakaoPGothic;-inkscape-font-specification:TakaoPGothic"
         id="path5016" />
    </g>
    <g
       style="font-style:normal;font-weight:normal;font-size:15px;line-height:125%;font-family:sans-serif;letter-spacing:0px;word-spacing:0px;writing-mode:lr-tb;fill:#000000;fill-opacity:1;stroke:none;stroke-width:1px;stroke-linecap:butt;stroke-linejoin:miter;stroke-opacity:1"
       id="text4221-6-4">
      <path
         d="m 120.71631,468.97375 q 4.30664,-0.17578 9.60937,-1.08398 l 1.52344,1.11328 q -0.87891,3.82324 -2.49023,8.0127 3.86718,0.58593 6.78222,1.88965 0.41016,-2.16797 0.4541,-5.58106 l 2.27051,0.5127 q -0.13183,3.32519 -0.68847,5.96191 2.35839,1.17188 4.6875,2.76855 l -1.37696,2.03614 q -2.51953,-1.75781 -3.91113,-2.49024 -1.47949,5.49317 -6.70898,8.67188 l -1.80176,-1.62598 q 5.05371,-2.65137 6.5625,-8.07129 -3.58887,-1.72851 -7.0459,-2.12402 -4.37988,9.78516 -7.73438,9.78516 -1.43554,0 -2.54882,-1.53809 -0.9668,-1.36231 -0.9668,-3.14941 0,-2.60743 2.40234,-4.55567 2.8125,-2.24121 7.41211,-2.54883 1.11328,-2.79785 1.97754,-6.78222 -3.7793,0.64453 -7.67578,0.95215 l -0.73242,-2.15333 z m 5.58105,9.96094 q -3.92578,0.41016 -5.81543,2.60742 -0.95214,1.14258 -0.95214,2.60743 0,0.76171 0.29296,1.333 0.41016,0.89356 1.11329,0.89356 0.82031,0 2.15332,-1.83106 1.56738,-2.06543 3.208,-5.61035 z"
         style="font-style:normal;font-variant:normal;font-weight:normal;font-stretch:normal;font-size:30px;font-family:TakaoPGothic;-inkscape-font-specification:TakaoPGothic"
         id="path5013" />
    </g>
    <g
       style="font-style:normal;font-weight:normal;font-size:15px;line-height:125%;font-family:sans-serif;letter-spacing:0px;word-spacing:0px;writing-mode:lr-tb;fill:#000000;fill-opacity:1;stroke:none;stroke-width:1px;stroke-linecap:butt;stroke-linejoin:miter;stroke-opacity:1"
       id="text4221-6-1-8">
      <path
         d="m 170.53412,419.48935 2.2998,0 -0.14648,4.2334 q 2.56348,-0.23438 5.58105,-0.82031 l 0.23438,2.16796 q -2.05078,0.35157 -5.90332,0.68848 l -0.17578,5.33203 q 0.49804,1.12793 0.49804,2.28516 0,1.64062 -0.89355,3.03222 -0.77637,1.28907 -0.77637,2.91504 0,1.37696 1.23047,1.74317 1.08399,0.32226 3.75,0.32226 3.16406,0 5.18555,-0.54199 1.94824,-0.49805 1.94824,-2.94433 0,-2.10938 -1.02539,-4.58497 l 2.40234,-0.48339 q 0.9961,2.92968 0.9961,5.37597 0,3.61817 -2.85645,4.52637 -2.19726,0.71777 -6.9873,0.71777 -3.64746,0 -5.18555,-0.65918 -1.68457,-0.73242 -1.68457,-2.54882 0,-0.92286 0.17578,-1.86036 -0.54199,0.20508 -1.15723,0.20508 -1.18652,0 -2.02148,-0.65918 -1.40625,-1.14258 -1.40625,-3.41308 0,-2.53418 1.71387,-4.20411 1.27441,-1.23046 2.7539,-1.23046 0.4834,0 1.20118,0.21972 l 0.0879,-3.39844 q -2.08008,0.0879 -3.55957,0.0879 -0.62989,0 -2.25586,-0.0586 l 0,-2.12402 q 1.47949,0.11719 3.2666,0.11719 0.54199,0 2.57812,-0.0586 l 0.13184,-4.37988 z m -1.33301,11.25 q -0.76172,0 -1.43555,0.71777 -0.8789,0.9668 -1.01074,2.51953 0,0.23438 -0.0439,0.32227 l 0,0.27832 q 0.14648,2.27051 1.80175,2.27051 1.02539,0 1.72852,-1.28906 0.39551,-0.68848 0.39551,-2.15333 0,-2.66601 -1.43555,-2.66601 z m 19.08691,0.32226 q -2.7832,-3.76464 -6.15234,-6.41601 l 1.80176,-1.46484 q 3.16406,2.40234 6.21094,6.0791 l -1.86036,1.80175 z"
         style="font-style:normal;font-variant:normal;font-weight:normal;font-stretch:normal;font-size:30px;font-family:TakaoPGothic;-inkscape-font-specification:TakaoPGothic"
         id="path5010" />
    </g>
    <g
       style="font-style:normal;font-weight:normal;font-size:15px;line-height:125%;font-family:sans-serif;letter-spacing:0px;word-spacing:0px;writing-mode:lr-tb;fill:#000000;fill-opacity:1;stroke:none;stroke-width:1px;stroke-linecap:butt;stroke-linejoin:miter;stroke-opacity:1"
       id="text4221-6-10-4">
      <path
         d="m 216.85498,468.50491 q 0.57129,2.69532 1.20117,4.67285 3.14942,-2.06542 6.81153,-2.51953 0.54199,-2.54882 0.74707,-4.58496 l 2.37304,0.43946 q -0.27832,1.68457 -0.80566,4.11621 3.91113,0.26367 6.31348,2.37304 2.88574,2.47559 2.88574,6.21094 0,8.70117 -11.19141,10.7666 l -1.37695,-2.15332 q 10.07812,-1.3623 10.07812,-8.61328 0,-3.22266 -2.51953,-5.06836 -1.86035,-1.3916 -4.70215,-1.65527 -1.74316,5.85937 -4.43847,10.19531 0.49804,0.87891 1.49414,2.16797 l -1.68457,1.49414 q -0.60059,-0.77637 -1.17188,-1.74316 -3.00293,3.6914 -5.44922,3.6914 -1.62597,0 -2.60742,-1.52344 -0.99609,-1.53808 -0.99609,-3.6621 0,-4.51172 4.40918,-8.5254 -0.92285,-2.94433 -1.40625,-5.15625 l 2.03613,-0.92285 z m 0.0586,8.10059 q -3.00293,3.07617 -3.00293,6.31348 0,3.00293 1.65528,3.00293 1.71387,0 4.14551,-3.23731 -1.56739,-2.79785 -2.79786,-6.0791 z m 7.47071,-4.05762 q -2.88574,0.43946 -5.72754,2.51953 1.25976,3.55957 2.40234,5.58106 2.19727,-4.04297 3.3252,-8.10059 z"
         style="font-style:normal;font-variant:normal;font-weight:normal;font-stretch:normal;font-size:30px;font-family:TakaoPGothic;-inkscape-font-specification:TakaoPGothic"
         id="path5007" />
    </g>
    <g
       style="font-style:normal;font-weight:normal;font-size:15px;line-height:125%;font-family:sans-serif;letter-spacing:0px;word-spacing:0px;writing-mode:lr-tb;fill:#000000;fill-opacity:1;stroke:none;stroke-width:1px;stroke-linecap:butt;stroke-linejoin:miter;stroke-opacity:1"
       id="text4221-6-9-7">
      <path
         d="m 163.79013,516.41907 q 2.92969,0.49804 6.12305,0.62988 l 0.14648,-1.06934 0.19043,-1.11328 0.26367,-1.83105 0.11719,-0.86426 0.14649,-0.9375 2.34375,0.33691 q -0.542,2.91504 -0.89356,5.47852 3.17871,-0.0293 6.78223,-0.57129 l 0,2.08008 q -2.73926,0.46875 -7.08985,0.57129 -0.32226,2.03613 -0.60058,4.64355 3.09082,0 6.69433,-0.60058 l 0,2.10937 q -3.14941,0.52735 -6.958,0.52735 -0.32227,1.8457 -0.32227,3.42773 0,4.80469 5.30273,4.80469 5.43457,0 5.43457,-4.80469 0,-2.12402 -0.71777,-4.29199 l 2.37305,-0.23438 q 0.71777,2.19727 0.71777,4.43848 0,3.57422 -2.34375,5.43457 -2.00683,1.55273 -5.46387,1.55273 -7.52929,0 -7.52929,-6.60644 0,-0.82031 0.23437,-2.98828 0,-0.13184 0.0293,-0.21973 0.0146,-0.0879 0.0293,-0.33691 0.0146,-0.14649 0.0293,-0.23438 -3.33984,-0.30762 -4.98047,-0.62988 l 0.21973,-2.09473 q 2.46094,0.5127 5.00977,0.65918 l 0.0879,-0.65918 0.0879,-0.9375 q 0.0147,-0.0732 0.39551,-2.98828 -3.26661,-0.13183 -6.12305,-0.65918 l 0.26367,-2.02148 z"
         style="font-style:normal;font-variant:normal;font-weight:normal;font-stretch:normal;font-size:30px;font-family:TakaoPGothic;-inkscape-font-specification:TakaoPGothic"
         id="path5004" />
    </g>
    <path
       style="color:#000000;clip-rule:nonzero;display:inline;overflow:visible;visibility:visible;opacity:1;isolation:auto;mix-blend-mode:normal;color-interpolation:sRGB;color-interpolation-filters:linearRGB;solid-color:#000000;solid-opacity:1;fill:#cccccc;fill-opacity:1;fill-rule:nonzero;stroke:#000000;stroke-width:2;stroke-linecap:butt;stroke-linejoin:miter;stroke-miterlimit:4;stroke-dasharray:none;stroke-dashoffset:0;stroke-opacity:1;color-rendering:auto;image-rendering:auto;shape-rendering:auto;text-rendering:auto;enable-background:accumulate"
       d="m 121,562.36224 110,0 c 5.54,0 10,4.46001 10,10.00001 l 0,109.99999 c 0,5.54 -4.46,10 -10,10 l -110,0 c -5.54,0 -10,-4.46 -10,-10 l 0,-109.99999 c 0,-5.54 4.46,-10.00001 10,-10.00001 z"
       id="rect3340-2" />
    <g
       style="font-style:normal;font-weight:normal;font-size:15px;line-height:125%;font-family:sans-serif;letter-spacing:0px;word-spacing:0px;writing-mode:lr-tb;fill:#000000;fill-opacity:1;stroke:none;stroke-width:1px;stroke-linecap:butt;stroke-linejoin:miter;stroke-opacity:1"
       id="text4221-6-8-0">
      <path
         d="m 152.23291,646.50165 q 2.4292,7.75146 9.68018,11.35254 l -1.40381,1.79443 q -6.86035,-3.96728 -9.32617,-11.19385 -1.42823,7.95899 -9.32618,11.81641 l -1.40381,-1.72119 q 4.56543,-1.68457 7.15333,-5.62744 1.72119,-2.66114 2.17285,-6.4209 l -9.44825,0 0,-1.74561 9.5459,0 0,-5.95703 1.97754,0 0,5.95703 9.72901,0 0,1.74561 -9.35059,0 z"
         style="font-style:normal;font-variant:normal;font-weight:normal;font-stretch:normal;font-size:25px;font-family:TakaoPGothic;-inkscape-font-specification:TakaoPGothic"
         id="path4996" />
      <path
         d="m 171.47119,642.22919 1.12305,1.15966 -2.31934,2.29493 11.35254,0 -2.33154,-2.29493 1.12305,-1.15966 7.32421,7.20215 -7.32421,7.20214 -1.12305,-1.15966 2.33154,-2.29493 -11.35254,0 2.31934,2.29493 -1.12305,1.15966 -7.32422,-7.20214 7.32422,-7.20215 z m -2.77099,5.00488 -2.23389,2.19727 2.23389,2.19726 14.50195,0 2.22168,-2.19726 -2.22168,-2.19727 -14.50195,0 z"
         style="font-style:normal;font-variant:normal;font-weight:normal;font-stretch:normal;font-size:25px;font-family:TakaoPGothic;-inkscape-font-specification:TakaoPGothic"
         id="path4998" />
      <path
         d="m 199.9502,639.37274 1.97753,0 0,18.15186 q 0,1.23291 -0.50048,1.77002 -0.54932,0.54931 -2.19727,0.54931 -1.46484,0 -3.23486,-0.14648 l -0.39063,-2.00195 q 1.62354,0.31738 3.36914,0.31738 0.97657,0 0.97657,-0.93994 l 0,-17.7002 z m 9.80224,15.52735 q -2.05078,-5.79834 -5.00488,-10.49805 l 1.67236,-0.76904 q 3.125,4.94384 5.24903,10.29052 l -1.91651,0.97657 z m -19.60449,-0.89112 q 3.13721,-3.79638 4.37012,-9.80224 l 1.90429,0.50048 q -1.42822,6.65284 -4.74853,10.71778 l -1.52588,-1.41602 z"
         style="font-style:normal;font-variant:normal;font-weight:normal;font-stretch:normal;font-size:25px;font-family:TakaoPGothic;-inkscape-font-specification:TakaoPGothic"
         id="path5000" />
    </g>
    <g
       style="font-style:normal;font-weight:normal;font-size:15px;line-height:125%;font-family:sans-serif;letter-spacing:0px;word-spacing:0px;writing-mode:lr-tb;fill:#787878;fill-opacity:1;stroke:none;stroke-width:1px;stroke-linecap:butt;stroke-linejoin:miter;stroke-opacity:1"
       id="text4347-2-1-3-2">
      <path
         d="m 161.67926,617.37463 0,3.36914 -3.3252,0 0,-1.69921 1.65528,0 0,-1.66993 1.66992,0 z m 0,-6.41601 0,2.98828 -1.66992,0 0,-2.98828 1.66992,0 z m 0,-6.38672 0,2.95898 -1.66992,0 0,-2.95898 1.66992,0 z m -6.75293,14.47266 0,1.69921 -2.98828,0 0,-1.69921 2.98828,0 z m -6.41602,0 0,1.69921 -2.95898,0 0,-1.69921 2.95898,0 z m 13.16895,-21.26954 0,3.36915 -1.66992,0 0,-1.66993 -1.65528,0 0,-1.69922 3.3252,0 z m -6.75293,0 0,1.69922 -2.98828,0 0,-1.69922 2.98828,0 z m -6.41602,0 0,1.69922 -2.95898,0 0,-1.69922 2.95898,0 z m -8.05664,19.59961 0,1.66993 1.66993,0 0,1.69921 -3.33985,0 0,-3.36914 1.66992,0 z m 0,-6.41601 0,2.98828 -1.66992,0 0,-2.98828 1.66992,0 z m 0,-6.38672 0,2.95898 -1.66992,0 0,-2.95898 1.66992,0 z m 1.66993,-6.79688 0,1.69922 -1.66993,0 0,1.66993 -1.66992,0 0,-3.36915 3.33985,0 z"
         style="font-style:normal;font-variant:normal;font-weight:normal;font-stretch:normal;font-size:30px;font-family:TakaoPGothic;-inkscape-font-specification:TakaoPGothic;fill:#787878;fill-opacity:1"
         id="path4993" />
    </g>
    <g
       style="font-style:normal;font-weight:normal;font-size:15px;line-height:125%;font-family:sans-serif;letter-spacing:0px;word-spacing:0px;writing-mode:lr-tb;fill:#000000;fill-opacity:1;stroke:none;stroke-width:1px;stroke-linecap:butt;stroke-linejoin:miter;stroke-opacity:1"
       id="text4221-6-07-9-0">
      <path
         d="m 157.11469,603.8869 q -1.77735,-2.8125 -4.23829,-5.09765 l 2.07032,-1.50391 q 2.26562,1.875 4.375,4.86328 l -2.20703,1.73828 z m 4.16015,-2.92969 q -1.79687,-2.69531 -4.35547,-4.96093 l 2.07032,-1.48438 q 2.42187,1.95313 4.49218,4.6875 l -2.20703,1.75781 z"
         style="font-style:normal;font-variant:normal;font-weight:normal;font-stretch:normal;font-size:40px;font-family:TakaoPGothic;-inkscape-font-specification:TakaoPGothic"
         id="path4990" />
    </g>
    <g
       style="font-style:normal;font-weight:normal;font-size:15px;line-height:125%;font-family:sans-serif;letter-spacing:0px;word-spacing:0px;writing-mode:lr-tb;fill:#787878;fill-opacity:1;stroke:none;stroke-width:1px;stroke-linecap:butt;stroke-linejoin:miter;stroke-opacity:1"
       id="text4347-2-1-3-2-4">
      <path
         d="m 211.67926,617.43317 0,3.36914 -3.3252,0 0,-1.69922 1.65528,0 0,-1.66992 1.66992,0 z m 0,-6.41602 0,2.98828 -1.66992,0 0,-2.98828 1.66992,0 z m 0,-6.38672 0,2.95899 -1.66992,0 0,-2.95899 1.66992,0 z m -6.75293,14.47266 0,1.69922 -2.98828,0 0,-1.69922 2.98828,0 z m -6.41602,0 0,1.69922 -2.95898,0 0,-1.69922 2.95898,0 z m 13.16895,-21.26953 0,3.36914 -1.66992,0 0,-1.66992 -1.65528,0 0,-1.69922 3.3252,0 z m -6.75293,0 0,1.69922 -2.98828,0 0,-1.69922 2.98828,0 z m -6.41602,0 0,1.69922 -2.95898,0 0,-1.69922 2.95898,0 z m -8.05664,19.59961 0,1.66992 1.66993,0 0,1.69922 -3.33985,0 0,-3.36914 1.66992,0 z m 0,-6.41602 0,2.98828 -1.66992,0 0,-2.98828 1.66992,0 z m 0,-6.38672 0,2.95899 -1.66992,0 0,-2.95899 1.66992,0 z m 1.66993,-6.79687 0,1.69922 -1.66993,0 0,1.66992 -1.66992,0 0,-3.36914 3.33985,0 z"
         style="font-style:normal;font-variant:normal;font-weight:normal;font-stretch:normal;font-size:30px;font-family:TakaoPGothic;-inkscape-font-specification:TakaoPGothic;fill:#787878;fill-opacity:1"
         id="path4987" />
    </g>
    <g
       style="font-style:normal;font-weight:normal;font-size:15px;line-height:125%;font-family:sans-serif;letter-spacing:0px;word-spacing:0px;writing-mode:lr-tb;fill:#000000;fill-opacity:1;stroke:none;stroke-width:1px;stroke-linecap:butt;stroke-linejoin:miter;stroke-opacity:1"
       id="text4221-6-07-9-0-9">
      <path
         d="m 208.86078,594.45331 q 1.81641,0 3.20312,1.44531 1.15235,1.28906 1.15235,2.94922 0,1.28906 -0.72266,2.36328 -1.30859,2.05078 -3.71094,2.05078 -1.09375,0 -2.01171,-0.52734 -2.36329,-1.26953 -2.36329,-3.92578 0,-2.22657 1.875,-3.55469 1.17188,-0.80078 2.57813,-0.80078 z m -0.0391,1.75781 q -0.60547,0 -1.25,0.3125 -1.40625,0.74219 -1.40625,2.32422 0,0.72266 0.44922,1.40625 0.76171,1.25 2.20703,1.25 0.95703,0 1.75781,-0.68359 0.87891,-0.76172 0.87891,-1.97266 0,-1.19141 -0.91797,-1.99219 -0.76172,-0.64453 -1.71875,-0.64453 z"
         style="font-style:normal;font-variant:normal;font-weight:normal;font-stretch:normal;font-size:40px;font-family:TakaoPGothic;-inkscape-font-specification:TakaoPGothic"
         id="path4984" />
    </g>
    <path
       style="color:#000000;clip-rule:nonzero;display:inline;overflow:visible;visibility:visible;opacity:1;isolation:auto;mix-blend-mode:normal;color-interpolation:sRGB;color-interpolation-filters:linearRGB;solid-color:#000000;solid-opacity:1;fill:#cccccc;fill-opacity:1;fill-rule:nonzero;stroke:#000000;stroke-width:2;stroke-linecap:butt;stroke-linejoin:miter;stroke-miterlimit:4;stroke-dasharray:none;stroke-dashoffset:0;stroke-opacity:1;color-rendering:auto;image-rendering:auto;shape-rendering:auto;text-rendering:auto;enable-background:accumulate"
       d="m 420,111.36222 110,0 c 5.54,0 10,4.46 10,10 l 0,110 c 0,5.54 -4.46,10 -10,10 l -110,0 c -5.54,0 -10,-4.46 -10,-10 l 0,-110 c 0,-5.54 4.46,-10 10,-10 z"
       id="rect3340-7" />
    <g
       style="font-style:normal;font-weight:normal;font-size:15px;line-height:125%;font-family:sans-serif;letter-spacing:0px;word-spacing:0px;writing-mode:lr-tb;fill:#000000;fill-opacity:1;stroke:none;stroke-width:1px;stroke-linecap:butt;stroke-linejoin:miter;stroke-opacity:1"
       id="text4221-1">
      <path
         d="m 456.17676,166.40128 q 1.44043,0.0488 3.2959,0.0488 7.05566,0 13.59863,-1.24511 -1.63574,-3.17383 -4.15039,-8.64258 l 3.61328,-1.00098 q 2.24609,5.44434 4.15039,8.83789 6.12793,-1.53808 11.23047,-4.15039 l 2.09961,3.32031 q -5.39551,2.46582 -11.59668,3.9795 4.05273,7.17773 9.81445,14.40429 l -3.10058,2.66114 q -5.2002,-2.83203 -11.15723,-4.76075 l 1.09863,-2.85644 q 3.78418,1.14746 7.15332,2.6123 -3.90625,-4.83398 -7.34863,-11.20605 -9.32617,1.70898 -17.55371,1.70898 l -1.14746,-3.71093 z m 27.4414,29.24804 q -4.49218,0.0977 -4.88281,0.0977 -10.30273,0 -14.62402,-3.24707 -4.39453,-3.34473 -4.39453,-10.13184 0,-0.51269 0.0488,-0.95215 l 3.56446,0.63477 q 0,5.00488 2.85644,7.39746 3.02735,2.58789 11.40137,2.58789 2.61231,0 5.59082,-0.1709 l 0.43945,3.78418 z"
         style="font-style:normal;font-variant:normal;font-weight:normal;font-stretch:normal;font-size:50px;font-family:TakaoPGothic;-inkscape-font-specification:TakaoPGothic"
         id="path4980" />
    </g>
    <g
       style="font-style:normal;font-weight:normal;font-size:15px;line-height:125%;font-family:sans-serif;letter-spacing:0px;word-spacing:0px;writing-mode:lr-tb;fill:#000000;fill-opacity:1;stroke:none;stroke-width:1px;stroke-linecap:butt;stroke-linejoin:miter;stroke-opacity:1"
       id="text4221-6-57">
      <path
         d="m 419.17432,166.10982 2.49023,0 0,16.71386 q 0,2.3584 0.77637,3.50098 0.95215,1.34766 3.39844,1.34766 5.625,0 9.08203,-6.92871 l 1.77246,1.83105 q -1.64063,3.19336 -4.43848,5.18555 -2.98828,2.19726 -6.38672,2.19726 -6.69433,0 -6.69433,-6.89941 l 0,-16.94824 z"
         style="font-style:normal;font-variant:normal;font-weight:normal;font-stretch:normal;font-size:30px;font-family:TakaoPGothic;-inkscape-font-specification:TakaoPGothic"
         id="path4977" />
    </g>
    <g
       style="font-style:normal;font-weight:normal;font-size:15px;line-height:125%;font-family:sans-serif;letter-spacing:0px;word-spacing:0px;writing-mode:lr-tb;fill:#000000;fill-opacity:1;stroke:none;stroke-width:1px;stroke-linecap:butt;stroke-linejoin:miter;stroke-opacity:1"
       id="text4221-6-1-20">
      <path
         d="m 475.18842,118.39787 2.31445,0 0,4.73145 1.80176,-0.0586 q 3.47168,-0.11718 5.58105,-0.14648 l 1.71387,-0.0293 0,2.09473 -2.00684,0 -1.53808,0 -2.46094,0.0439 -1.49414,0.0293 -1.59668,0 0,5.58106 q 0.65918,1.58203 0.65918,3.38379 0,7.17773 -7.71973,10.38574 l -1.72851,-1.86035 q 6.13769,-2.25586 7.25097,-6.75293 -1.11328,1.56738 -3.17871,1.56738 -1.72851,0 -3.09082,-1.31836 -1.34765,-1.34766 -1.34765,-3.33984 0,-2.18262 1.40625,-3.7793 1.31835,-1.40625 3.09082,-1.40625 1.24511,0 2.34375,0.74707 l 0,-3.14941 -2.8125,0.0586 q -8.07129,0.16113 -9.90235,0.24902 l 0,-2.09472 q 4.36524,-0.0733 12.71485,-0.14649 l 0,-4.79004 z m 0.23437,14.19434 0,-0.29297 q 0,-1.30371 -0.83496,-2.13867 -0.67383,-0.62988 -1.52344,-0.62988 -1.875,0 -2.46094,2.49023 l -0.0293,0.14648 0,0.16114 q 0,0.60058 0.11719,1.06933 0.41015,1.99219 2.34375,1.99219 1.333,0 2.00683,-1.20117 0.38086,-0.65918 0.38086,-1.59668 z"
         style="font-style:normal;font-variant:normal;font-weight:normal;font-stretch:normal;font-size:30px;font-family:TakaoPGothic;-inkscape-font-specification:TakaoPGothic"
         id="path4974" />
    </g>
    <g
       style="font-style:normal;font-weight:normal;font-size:15px;line-height:125%;font-family:sans-serif;letter-spacing:0px;word-spacing:0px;writing-mode:lr-tb;fill:#000000;fill-opacity:1;stroke:none;stroke-width:1px;stroke-linecap:butt;stroke-linejoin:miter;stroke-opacity:1"
       id="text4221-6-10-3">
      <path
         d="m 526.46045,165.64098 2.28516,0 0,6.78222 6.4746,-0.30761 0.0879,1.97753 -6.5625,0.30762 0,5.58106 q 0,2.34375 -2.37305,2.34375 -2.02149,0 -3.86719,-0.73243 l 0,-2.24121 q 1.9043,0.84961 3.03223,0.84961 0.92285,0 0.92285,-0.99609 l 0,-4.6875 -8.54004,0.39551 0,8.90625 q 0,2.02148 1.68457,2.43164 1.09863,0.29297 4.96582,0.29297 3.63281,0 7.32422,-0.38086 l 0.0879,2.34375 q -3.69141,0.29297 -7.26562,0.29297 -5.55176,0 -7.30958,-0.89356 -1.80175,-0.95215 -1.80175,-3.45703 l 0,-9.41895 -5.66895,0.26368 -0.0879,-2.00684 5.75684,-0.26367 0,-5.91797 2.31445,0 0,5.81543 8.54004,-0.41016 0,-6.87011 z"
         style="font-style:normal;font-variant:normal;font-weight:normal;font-stretch:normal;font-size:30px;font-family:TakaoPGothic;-inkscape-font-specification:TakaoPGothic"
         id="path4971" />
    </g>
    <g
       style="font-style:normal;font-weight:normal;font-size:15px;line-height:125%;font-family:sans-serif;letter-spacing:0px;word-spacing:0px;writing-mode:lr-tb;fill:#000000;fill-opacity:1;stroke:none;stroke-width:1px;stroke-linecap:butt;stroke-linejoin:miter;stroke-opacity:1"
       id="text4221-6-9-0">
      <path
         d="m 466.05673,212.82268 q 6.53321,-0.30762 13.47656,-1.11328 l 1.23047,1.52343 q -4.89257,4.48243 -8.49609,7.20704 4.57031,-0.68848 12.59766,-1.68458 l 0.30761,2.16797 q -5.41992,0.43946 -7.9541,1.61133 -4.16015,1.9336 -4.16015,5.91797 0,4.51172 8.54003,4.55566 l 0.0879,2.43165 q -4.98046,-0.044 -7.67578,-1.50879 -3.29589,-1.80176 -3.29589,-5.18555 0,-3.69141 4.01367,-6.81152 -5.81543,0.86425 -10.07813,1.56738 l -1.97754,0.32226 -0.4248,-2.18261 1.23047,-0.14649 1.08398,-0.13183 1.83106,-0.20508 1.09863,-0.11719 1.23047,-0.14648 q 5.09765,-3.72071 8.4375,-7.14844 -5.21485,0.9082 -10.62012,1.34766 l -0.4834,-2.27051 z"
         style="font-style:normal;font-variant:normal;font-weight:normal;font-stretch:normal;font-size:30px;font-family:TakaoPGothic;-inkscape-font-specification:TakaoPGothic"
         id="path4968" />
    </g>
    <path
       style="color:#000000;clip-rule:nonzero;display:inline;overflow:visible;visibility:visible;opacity:1;isolation:auto;mix-blend-mode:normal;color-interpolation:sRGB;color-interpolation-filters:linearRGB;solid-color:#000000;solid-opacity:1;fill:#cccccc;fill-opacity:1;fill-rule:nonzero;stroke:#000000;stroke-width:2;stroke-linecap:butt;stroke-linejoin:miter;stroke-miterlimit:4;stroke-dasharray:none;stroke-dashoffset:0;stroke-opacity:1;color-rendering:auto;image-rendering:auto;shape-rendering:auto;text-rendering:auto;enable-background:accumulate"
       d="m 420,261.69559 110,0 c 5.54,0 10,4.46 10,10 l 0,109.99999 c 0,5.54001 -4.46,10.00001 -10,10.00001 l -110,0 c -5.54,0 -10,-4.46 -10,-10.00001 l 0,-109.99999 c 0,-5.54 4.46,-10 10,-10 z"
       id="rect3340-7-5" />
    <g
       style="font-style:normal;font-weight:normal;font-size:15px;line-height:125%;font-family:sans-serif;letter-spacing:0px;word-spacing:0px;writing-mode:lr-tb;fill:#000000;fill-opacity:1;stroke:none;stroke-width:1px;stroke-linecap:butt;stroke-linejoin:miter;stroke-opacity:1"
       id="text4221-9">
      <path
         d="m 482.37305,307.48172 3.71093,0 0.14649,8.64258 q 3.49121,-0.36621 8.00781,-1.34278 l 0.29297,3.71094 q -2.83203,0.56153 -8.25195,1.14746 l 0.24414,14.69727 q 3.95508,1.2207 10.44922,5.34668 l -2.14844,3.4668 q -4.41895,-3.14942 -8.20313,-5.05372 l 0,0.6836 q 0,4.49219 -2.39257,5.9082 -1.68457,1.00098 -4.49219,1.00098 -10.44922,0 -10.44922,-6.71387 0,-3.05176 2.75879,-4.83398 2.51465,-1.61133 6.20117,-1.61133 1.78223,0 4.6875,0.61035 l -0.29297,-13.25684 q -3.19824,0.14649 -5.76172,0.14649 -3.39355,0 -6.83593,-0.24414 l -0.1709,-3.58887 q 3.78418,0.3418 7.76367,0.3418 2.27051,0 4.95605,-0.14649 l -0.21972,-8.91113 z m 0.61035,29.10156 q -3.00293,-0.85449 -4.90723,-0.85449 -5.20019,0 -5.20019,3.19824 0,1.22071 1.19629,2.09961 1.78222,1.41602 4.95605,1.41602 3.95508,0 3.95508,-3.51563 l 0,-2.34375 z m -24.53613,9.39942 q -1.61133,-8.76465 -1.61133,-15.47852 0,-9.5459 3.54004,-23.07129 l 3.75976,0.95215 q -3.58887,13.42773 -3.58887,22.36328 0,2.58789 0.29297,6.20117 2.22168,-4.6875 3.49121,-6.958 l 2.51465,1.48925 q -4.61425,8.52051 -4.61425,13.0127 0,0.53711 0.0488,1.09863 l -3.833,0.39063 z"
         style="font-style:normal;font-variant:normal;font-weight:normal;font-stretch:normal;font-size:50px;font-family:TakaoPGothic;-inkscape-font-specification:TakaoPGothic"
         id="path4964" />
    </g>
    <g
       style="font-style:normal;font-weight:normal;font-size:15px;line-height:125%;font-family:sans-serif;letter-spacing:0px;word-spacing:0px;writing-mode:lr-tb;fill:#000000;fill-opacity:1;stroke:none;stroke-width:1px;stroke-linecap:butt;stroke-linejoin:miter;stroke-opacity:1"
       id="text4221-6-6">
      <path
         d="m 415.70264,321.87775 q 5.37597,-1.15723 11.01562,-3.60352 l 1.25977,1.88965 q -6.84082,6.97266 -6.84082,11.79199 0,2.49024 1.37695,4.13086 1.53809,1.80176 4.08691,1.80176 3.33985,0 5.21485,-2.8125 1.59668,-2.41699 1.59668,-6.51856 0,-5.06836 -1.08399,-9.08203 l 2.12403,-0.80566 q 3.07617,5.71289 7.20703,10.3125 l -1.77246,1.88965 q -2.62207,-3.31055 -4.89258,-7.42676 0.4834,3.22266 0.4834,5.5957 0,4.77539 -1.77246,7.58789 -2.29981,3.60352 -7.16309,3.60352 -3.45703,0 -5.68359,-2.31445 -2.09473,-2.18262 -2.09473,-5.69825 0,-5.34668 6.03516,-11.14746 -3.92578,1.75782 -8.10059,2.97364 l -0.99609,-2.16797 z"
         style="font-style:normal;font-variant:normal;font-weight:normal;font-stretch:normal;font-size:30px;font-family:TakaoPGothic;-inkscape-font-specification:TakaoPGothic"
         id="path4961" />
    </g>
    <g
       style="font-style:normal;font-weight:normal;font-size:15px;line-height:125%;font-family:sans-serif;letter-spacing:0px;word-spacing:0px;writing-mode:lr-tb;fill:#000000;fill-opacity:1;stroke:none;stroke-width:1px;stroke-linecap:butt;stroke-linejoin:miter;stroke-opacity:1"
       id="text4221-6-1-21">
      <path
         d="m 470.25189,287.84744 q 2.21192,3.10547 5.12696,3.10547 2.60742,0 2.60742,-2.49023 0,-1.77246 -1.83106,-3.95508 -2.94433,-3.53027 -3.2666,-7.88086 l 2.25586,0 q 0.13184,2.37305 0.95215,4.01367 0.70312,1.40625 2.34375,3.17871 1.86035,2.05078 1.86035,4.62891 0,1.96289 -1.05469,3.20801 -1.30371,1.52343 -3.77929,1.52343 -3.83789,0 -6.5625,-3.44238 l 1.34765,-1.88965 z m 16.55274,1.78711 q -2.3877,-5.06836 -5.69825,-8.62793 l 1.71387,-1.45019 q 3.7793,3.86718 6.09375,8.58398 l -2.10937,1.49414 z m -8.15918,-14.4873 q -3.86719,-2.59278 -7.82227,-4.10157 l 1.14258,-1.83105 q 3.96973,1.46484 7.93945,3.95508 l -1.25976,1.97754 z m -16.49414,14.07715 q 3.10546,-3.42774 4.83398,-8.4375 l 2.18262,0.9375 q -1.91895,5.31738 -5.06836,9.14062 l -1.94824,-1.64062 z"
         style="font-style:normal;font-variant:normal;font-weight:normal;font-stretch:normal;font-size:30px;font-family:TakaoPGothic;-inkscape-font-specification:TakaoPGothic"
         id="path4958" />
    </g>
    <g
       style="font-style:normal;font-weight:normal;font-size:15px;line-height:125%;font-family:sans-serif;letter-spacing:0px;word-spacing:0px;writing-mode:lr-tb;fill:#000000;fill-opacity:1;stroke:none;stroke-width:1px;stroke-linecap:butt;stroke-linejoin:miter;stroke-opacity:1"
       id="text4221-6-10-37">
      <path
         d="m 510.21533,329.56808 q 4.27735,-3.09082 8.33496,-7.64648 0.9375,-1.02539 1.80176,-1.02539 0.87891,0 2.08008,1.20117 6.87012,6.88477 13.91601,10.2832 l -1.68457,2.22657 q -7.14843,-4.2334 -12.93457,-9.94629 -0.92285,-0.9375 -1.40625,-0.9375 -0.4248,0 -1.28906,0.98144 -3.7207,4.18946 -7.32422,7.01661 l -1.49414,-2.15333 z"
         style="font-style:normal;font-variant:normal;font-weight:normal;font-stretch:normal;font-size:30px;font-family:TakaoPGothic;-inkscape-font-specification:TakaoPGothic"
         id="path4955" />
    </g>
    <g
       style="font-style:normal;font-weight:normal;font-size:15px;line-height:125%;font-family:sans-serif;letter-spacing:0px;word-spacing:0px;writing-mode:lr-tb;fill:#000000;fill-opacity:1;stroke:none;stroke-width:1px;stroke-linecap:butt;stroke-linejoin:miter;stroke-opacity:1"
       id="text4221-6-9-3">
      <path
         d="m 471.63779,363.09744 q 2.53418,0.14649 4.2334,0.14649 4.77539,0 9.62402,-0.90821 l 0.21973,1.99219 q -2.78321,0.4834 -4.37989,0.62988 l 0.0879,4.37989 q 2.50489,-0.26367 5.03907,-0.79102 l 0.17578,2.05078 q -2.25586,0.4834 -5.15625,0.71778 l 0.17578,6.75293 q 2.95898,1.04003 6.15234,2.92968 l -1.31836,2.00684 q -2.25586,-1.65527 -4.77539,-2.75391 l 0,0.62989 q 0,2.37304 -0.95215,3.25195 -1.01074,0.86426 -3.2666,0.86426 -6.60644,0 -6.60644,-4.02832 0,-1.77246 1.52343,-2.8125 1.61133,-1.05469 4.292,-1.05469 1.31836,0 2.85644,0.36621 l -0.20508,-6.00586 q -1.96289,0.0879 -3.25195,0.0879 -2.7832,0 -5.06836,-0.20508 l -0.14648,-1.97754 q 2.56347,0.20508 5.27343,0.20508 1.46485,0 3.12012,-0.0879 l -0.14648,-4.37988 q -1.80176,0.0879 -3.38379,0.0879 -2.22656,0 -4.02832,-0.11719 l -0.0879,-1.97754 z m 7.9541,16.43555 q -1.62598,-0.5127 -3.06153,-0.5127 -3.41308,0 -3.41308,1.94825 0,0.79101 0.99609,1.333 1.14258,0.60059 2.92969,0.60059 2.54883,0 2.54883,-2.02148 l 0,-1.34766 z m -14.72168,5.49316 q -1.11328,-5.15625 -1.11328,-9.44824 0,-4.96582 1.88965,-14.01855 l 2.34375,0.4248 q -2.00684,8.48145 -2.00684,14.45801 0,1.53809 0.11719,3.20801 1.08398,-2.75391 1.91894,-4.40918 l 1.49414,1.02539 q -2.37304,4.96582 -2.37304,7.36816 0,0.17578 0.0732,0.9961 l -2.34375,0.3955 z"
         style="font-style:normal;font-variant:normal;font-weight:normal;font-stretch:normal;font-size:30px;font-family:TakaoPGothic;-inkscape-font-specification:TakaoPGothic"
         id="path4952" />
    </g>
    <path
       style="color:#000000;clip-rule:nonzero;display:inline;overflow:visible;visibility:visible;opacity:1;isolation:auto;mix-blend-mode:normal;color-interpolation:sRGB;color-interpolation-filters:linearRGB;solid-color:#000000;solid-opacity:1;fill:#cccccc;fill-opacity:1;fill-rule:nonzero;stroke:#000000;stroke-width:2;stroke-linecap:butt;stroke-linejoin:miter;stroke-miterlimit:4;stroke-dasharray:none;stroke-dashoffset:0;stroke-opacity:1;color-rendering:auto;image-rendering:auto;shape-rendering:auto;text-rendering:auto;enable-background:accumulate"
       d="m 420,412.0289 110,0 c 5.54,0 10,4.46 10,10 l 0,110 c 0,5.54 -4.46,10 -10,10 l -110,0 c -5.54,0 -10,-4.46 -10,-10 l 0,-110 c 0,-5.54 4.46,-10 10,-10 z"
       id="rect3340-7-1" />
    <g
       style="font-style:normal;font-weight:normal;font-size:15px;line-height:125%;font-family:sans-serif;letter-spacing:0px;word-spacing:0px;writing-mode:lr-tb;fill:#000000;fill-opacity:1;stroke:none;stroke-width:1px;stroke-linecap:butt;stroke-linejoin:miter;stroke-opacity:1"
       id="text4221-40">
      <path
         d="m 478.0242,465.23691 q -6.27441,-4.29688 -12.06055,-6.4209 l 1.75782,-3.24707 q 5.98144,2.14844 12.30468,6.10351 l -2.00195,3.56446 z m -18.4082,20.67871 q 0.83008,-9.86328 3.14941,-21.5332 l 3.8086,0.85449 q -1.87989,8.37402 -2.70997,16.28418 7.88575,-6.5918 16.21094,-6.5918 4.44336,0 7.39746,1.85547 4.15039,2.56348 4.15039,7.2998 0,6.61622 -6.81152,10.18067 -5.56641,2.97851 -15.50293,3.51562 l -1.7334,-3.80859 q 8.76465,0 14.45313,-2.63672 5.44433,-2.6123 5.44433,-7.20215 0,-2.70996 -2.05078,-4.29687 -2.19726,-1.61133 -5.85937,-1.61133 -8.1543,0 -16.65039,8.78906 l -3.2959,-1.09863 z"
         style="font-style:normal;font-variant:normal;font-weight:normal;font-stretch:normal;font-size:50px;font-family:TakaoPGothic;-inkscape-font-specification:TakaoPGothic"
         id="path4948" />
    </g>
    <g
       style="font-style:normal;font-weight:normal;font-size:15px;line-height:125%;font-family:sans-serif;letter-spacing:0px;word-spacing:0px;writing-mode:lr-tb;fill:#000000;fill-opacity:1;stroke:none;stroke-width:1px;stroke-linecap:butt;stroke-linejoin:miter;stroke-opacity:1"
       id="text4221-6-0">
      <path
         d="m 425.69287,477.10364 q -2.56348,5.24414 -5.03906,5.24414 -2.49024,0 -2.49024,-7.16309 0,-3.32519 0.65918,-8.15918 l 2.43164,0.29297 q -0.71777,5.08301 -0.71777,8.21777 0,3.89649 0.74707,3.89649 0.26367,0 0.65918,-0.4541 1.15723,-1.33301 2.12402,-3.58887 l 1.62598,1.71387 z m -2.31445,11.96777 q 4.90722,-1.75781 6.75293,-4.95117 1.43554,-2.47559 1.43554,-8.39356 0,-4.2041 -0.43945,-9.15527 l 2.54883,0 q 0.35156,4.27734 0.35156,9.15527 0,6.84082 -1.88965,9.99024 -2.08007,3.47168 -7.04589,5.30273 l -1.71387,-1.94824 z"
         style="font-style:normal;font-variant:normal;font-weight:normal;font-stretch:normal;font-size:30px;font-family:TakaoPGothic;-inkscape-font-specification:TakaoPGothic"
         id="path4945" />
    </g>
    <g
       style="font-style:normal;font-weight:normal;font-size:15px;line-height:125%;font-family:sans-serif;letter-spacing:0px;word-spacing:0px;writing-mode:lr-tb;fill:#000000;fill-opacity:1;stroke:none;stroke-width:1px;stroke-linecap:butt;stroke-linejoin:miter;stroke-opacity:1"
       id="text4221-6-1-7">
      <path
         d="m 478.99701,422.24326 -8.33496,8.49609 q 2.87109,-1.05469 5.37597,-1.05469 2.3584,0 4.21875,0.86426 3.42774,1.66992 3.42774,5.34668 0,3.41309 -3.20801,5.66894 -2.97363,2.06543 -7.74902,2.06543 -2.31446,0 -3.7793,-0.86425 -1.80176,-1.08399 -1.80176,-3.03223 0,-1.25977 0.9668,-2.22656 1.23047,-1.23047 3.14941,-1.23047 3.60352,0 5.99122,4.57031 3.99902,-1.65527 3.99902,-4.98047 0,-2.2998 -1.88965,-3.42773 -1.4209,-0.86426 -3.69141,-0.86426 -5.88867,0 -11.45507,5.61035 l -1.62598,-1.74316 q 7.25098,-6.34278 12.59766,-12.65625 -4.61426,0.73242 -9.33106,1.02539 l -0.51269,-2.28516 q 5.22949,-0.13183 12.33398,-0.99609 l 1.31836,1.71387 z m -3.75,19.2041 q -1.62598,-3.39844 -4.02832,-3.39844 -1.53809,0 -1.86035,1.05469 -0.0879,0.35156 -0.0879,0.46875 0,2.10937 3.36914,2.10937 1.11328,0 2.60742,-0.23437 z"
         style="font-style:normal;font-variant:normal;font-weight:normal;font-stretch:normal;font-size:30px;font-family:TakaoPGothic;-inkscape-font-specification:TakaoPGothic"
         id="path4942" />
    </g>
    <g
       style="font-style:normal;font-weight:normal;font-size:15px;line-height:125%;font-family:sans-serif;letter-spacing:0px;word-spacing:0px;writing-mode:lr-tb;fill:#000000;fill-opacity:1;stroke:none;stroke-width:1px;stroke-linecap:butt;stroke-linejoin:miter;stroke-opacity:1"
       id="text4221-6-10-1">
      <path
         d="m 509.0293,472.06448 q 3.45703,-0.4541 5.90332,-0.99609 l 0.0293,-0.89355 0.0293,-0.90821 0.0732,-1.46484 0.0293,-0.89356 0.0293,-0.99609 2.24121,0 q -0.10254,2.60742 -0.29297,4.6875 l 1.71387,1.55273 q -0.89356,1.17188 -1.74317,2.49024 -0.0293,0.27832 -0.0293,1.28906 5.15625,-5.24414 8.96484,-5.24414 3.35449,0 3.35449,3.86719 0,1.01074 -0.29297,2.54883 -0.62988,3.47168 -0.62988,6.84082 0,2.51953 0.9668,2.51953 0.57129,0 1.49414,-0.60059 1.55273,-1.09863 2.84179,-3.2373 l 1.33301,2.19726 q -1.17187,1.61133 -2.88574,2.8711 -1.75781,1.25976 -3.14941,1.25976 -2.82715,0 -2.82715,-4.92187 0,-3.45703 0.71777,-8.51075 0.0879,-0.54199 0.0879,-0.89355 0,-1.71387 -1.43555,-1.71387 -3.2373,0 -8.59863,5.72754 -0.0293,1.66992 -0.0293,3.8086 0,3.48632 0.0879,7.67578 l -2.31446,0 0,-1.80176 q 0,-4.76074 0.0293,-7.0752 -0.99609,1.25977 -3.14942,4.13086 l -0.71777,0.9668 L 509,484.72073 q 2.59277,-3.39843 5.81543,-6.958 0,-2.62207 0.0879,-4.64356 -3.10547,0.86426 -5.33203,1.28906 l -0.54199,-2.34375 z"
         style="font-style:normal;font-variant:normal;font-weight:normal;font-stretch:normal;font-size:30px;font-family:TakaoPGothic;-inkscape-font-specification:TakaoPGothic"
         id="path4939" />
    </g>
    <g
       style="font-style:normal;font-weight:normal;font-size:15px;line-height:125%;font-family:sans-serif;letter-spacing:0px;word-spacing:0px;writing-mode:lr-tb;fill:#000000;fill-opacity:1;stroke:none;stroke-width:1px;stroke-linecap:butt;stroke-linejoin:miter;stroke-opacity:1"
       id="text4221-6-9-75">
      <path
         d="m 478.27353,514.35364 -8.07129,8.90625 q 3.04687,-1.49414 6.00586,-1.49414 2.50488,0 4.29199,1.14258 2.66602,1.66992 2.66602,4.89257 0,7.92481 -14.5459,8.05664 l -1.11328,-2.2705 q 0.83496,0.0293 1.46484,0.0293 11.7627,0 11.7627,-5.81543 0,-1.80175 -1.31836,-2.94433 -1.31836,-1.14258 -3.51563,-1.14258 -2.02148,0 -4.58496,1.08398 -3.85254,1.62598 -7.22168,4.73145 l -1.65527,-1.86035 q 5.5664,-4.57032 12.24609,-12.71485 -4.2041,0.73243 -9.81445,1.20118 l -0.62988,-2.43165 q 6.31347,-0.23437 12.62695,-1.02539 l 1.40625,1.65528 z"
         style="font-style:normal;font-variant:normal;font-weight:normal;font-stretch:normal;font-size:30px;font-family:TakaoPGothic;-inkscape-font-specification:TakaoPGothic"
         id="path4936" />
    </g>
    <path
       style="color:#000000;clip-rule:nonzero;display:inline;overflow:visible;visibility:visible;opacity:1;isolation:auto;mix-blend-mode:normal;color-interpolation:sRGB;color-interpolation-filters:linearRGB;solid-color:#000000;solid-opacity:1;fill:#cccccc;fill-opacity:1;fill-rule:nonzero;stroke:#000000;stroke-width:2;stroke-linecap:butt;stroke-linejoin:miter;stroke-miterlimit:4;stroke-dasharray:none;stroke-dashoffset:0;stroke-opacity:1;color-rendering:auto;image-rendering:auto;shape-rendering:auto;text-rendering:auto;enable-background:accumulate"
       d="m 420,562.36224 110,0 c 5.54,0 10,4.46001 10,10.00001 l 0,109.99999 c 0,5.54 -4.46,10 -10,10 l -110,0 c -5.54,0 -10,-4.46 -10,-10 l 0,-109.99999 c 0,-5.54 4.46,-10.00001 10,-10.00001 z"
       id="rect3340-7-0" />
    <g
       style="font-style:normal;font-weight:normal;font-size:15px;line-height:125%;font-family:sans-serif;letter-spacing:0px;word-spacing:0px;writing-mode:lr-tb;fill:#787878;fill-opacity:1;stroke:none;stroke-width:1px;stroke-linecap:butt;stroke-linejoin:miter;stroke-opacity:1"
       id="text4347-1">
      <path
         d="m 490.26367,638.18256 0,4.49218 -4.43359,0 0,-2.26562 2.20703,0 0,-2.22656 2.22656,0 z m 0,-8.55469 0,3.98437 -2.22656,0 0,-3.98437 2.22656,0 z m 0,-8.51563 0,3.94532 -2.22656,0 0,-3.94532 2.22656,0 z m -9.0039,19.29688 0,2.26562 -3.98438,0 0,-2.26562 3.98438,0 z m -8.55469,0 0,2.26562 -3.94531,0 0,-2.26562 3.94531,0 z m 17.55859,-28.35938 0,4.49219 -2.22656,0 0,-2.22656 -2.20703,0 0,-2.26563 4.43359,0 z m -9.0039,0 0,2.26563 -3.98438,0 0,-2.26563 3.98438,0 z m -8.55469,0 0,2.26563 -3.94531,0 0,-2.26563 3.94531,0 z m -10.74219,26.13282 0,2.22656 2.22656,0 0,2.26562 -4.45312,0 0,-4.49218 2.22656,0 z m 0,-8.55469 0,3.98437 -2.22656,0 0,-3.98437 2.22656,0 z m 0,-8.51563 0,3.94532 -2.22656,0 0,-3.94532 2.22656,0 z m 2.22656,-9.0625 0,2.26563 -2.22656,0 0,2.22656 -2.22656,0 0,-4.49219 4.45312,0 z"
         style="font-style:normal;font-variant:normal;font-weight:normal;font-stretch:normal;font-size:40px;font-family:TakaoPGothic;-inkscape-font-specification:TakaoPGothic;fill:#787878;fill-opacity:1"
         id="path4932" />
    </g>
    <g
       style="font-style:normal;font-weight:normal;font-size:15px;line-height:125%;font-family:sans-serif;letter-spacing:0px;word-spacing:0px;writing-mode:lr-tb;fill:#000000;fill-opacity:1;stroke:none;stroke-width:1px;stroke-linecap:butt;stroke-linejoin:miter;stroke-opacity:1"
       id="text4221-40-5">
      <path
         d="m 462.47559,649.45697 q -3.6377,-5.68848 -8.1543,-9.8877 l 3.19824,-2.75878 q 4.17481,3.71093 8.44727,9.64355 l -3.49121,3.00293 z"
         style="font-style:normal;font-variant:normal;font-weight:normal;font-stretch:normal;font-size:50px;font-family:TakaoPGothic;-inkscape-font-specification:TakaoPGothic"
         id="path4929" />
    </g>
    <g
       style="font-style:normal;font-weight:normal;font-size:15px;line-height:125%;font-family:sans-serif;letter-spacing:0px;word-spacing:0px;writing-mode:lr-tb;fill:#000000;fill-opacity:1;stroke:none;stroke-width:1px;stroke-linecap:butt;stroke-linejoin:miter;stroke-opacity:1"
       id="text4221-6-1-39">
      <path
         d="m 463.98236,577.04437 q 0.21973,-3.47168 2.15332,-5.49316 2.3584,-2.40235 6.1377,-2.40235 2.88574,0 4.87793,1.28907 2.79785,1.80176 2.79785,5.03906 0,3.36914 -3.72071,5.71289 -2.28515,1.4502 -2.85644,3.17871 -0.39551,1.08399 -0.39551,3.06152 l -2.66601,0 q 0.0439,-3.00292 0.9375,-4.52636 1.06933,-1.84571 3.7207,-3.54492 2.31445,-1.49414 2.31445,-3.88184 0,-2.12402 -1.71387,-3.20801 -1.30371,-0.80566 -3.32519,-0.80566 -2.85645,0 -4.33594,1.91894 -1.08398,1.3916 -1.17187,3.66211 l -2.75391,0 z m 5.90332,13.11035 3.48633,0 0,3.48633 -3.48633,0 0,-3.48633 z"
         style="font-style:normal;font-variant:normal;font-weight:normal;font-stretch:normal;font-size:30px;font-family:TakaoPGothic;-inkscape-font-specification:TakaoPGothic"
         id="path4926" />
    </g>
    <g
       style="font-style:normal;font-weight:normal;font-size:15px;line-height:125%;font-family:sans-serif;letter-spacing:0px;word-spacing:0px;writing-mode:lr-tb;fill:#000000;fill-opacity:1;stroke:none;stroke-width:1px;stroke-linecap:butt;stroke-linejoin:miter;stroke-opacity:1"
       id="text4221-6-10-20">
      <path
         d="m 514.02393,615.89392 3.48632,0 -0.54199,18.06152 -2.40234,0 -0.54199,-18.06152 z m 0,20.78613 3.48632,0 0,3.48633 -3.48632,0 0,-3.48633 z"
         style="font-style:normal;font-variant:normal;font-weight:normal;font-stretch:normal;font-size:30px;font-family:TakaoPGothic;-inkscape-font-specification:TakaoPGothic"
         id="path4923" />
    </g>
    <g
       style="font-style:normal;font-weight:normal;font-size:15px;line-height:125%;font-family:sans-serif;letter-spacing:0px;word-spacing:0px;writing-mode:lr-tb;fill:#000000;fill-opacity:1;stroke:none;stroke-width:1px;stroke-linecap:butt;stroke-linejoin:miter;stroke-opacity:1"
       id="text4221-6-9-9">
      <path
         d="m 464.10849,672.18695 3.35449,0 0,3.35449 -3.35449,0 0,-3.35449 z m 9.99023,0 3.3545,0 0,3.35449 -3.3545,0 0,-3.35449 z m 9.99024,0 3.35449,0 0,3.35449 -3.35449,0 0,-3.35449 z"
         style="font-style:normal;font-variant:normal;font-weight:normal;font-stretch:normal;font-size:30px;font-family:TakaoPGothic;-inkscape-font-specification:TakaoPGothic"
         id="path4920" />
    </g>
    <g
       style="font-style:normal;font-weight:normal;font-size:15px;line-height:125%;font-family:sans-serif;letter-spacing:0px;word-spacing:0px;writing-mode:lr-tb;fill:#000000;fill-opacity:1;stroke:none;stroke-width:1px;stroke-linecap:butt;stroke-linejoin:miter;stroke-opacity:1"
       id="text4221-6-07-9">
      <path
         d="m 422.22168,633.64795 q 0.9375,0 1.86035,0.4834 2.09473,1.11328 2.09473,3.50097 0,0.95215 -0.4541,1.80176 -1.11329,2.18262 -3.53028,2.18262 -1.02539,0 -1.90429,-0.4834 -2.09473,-1.11328 -2.09473,-3.53027 0,-1.62598 1.23047,-2.8418 1.11328,-1.11328 2.79785,-1.11328 z m -0.0293,1.52344 q -0.96679,0 -1.69922,0.62988 -0.77636,0.73242 -0.77636,1.83105 0,0.52735 0.23437,1.05469 0.64453,1.40625 2.24121,1.40625 0.70313,0 1.28907,-0.36621 1.17187,-0.67383 1.17187,-2.09473 0,-1.55273 -1.34766,-2.22656 -0.54199,-0.23437 -1.11328,-0.23437 z"
         style="font-style:normal;font-variant:normal;font-weight:normal;font-stretch:normal;font-size:30px;font-family:TakaoPGothic;-inkscape-font-specification:TakaoPGothic"
         id="path4917" />
    </g>
    <g
       style="font-style:normal;font-weight:normal;font-size:15px;line-height:125%;font-family:sans-serif;letter-spacing:0px;word-spacing:0px;writing-mode:lr-tb;fill:#787878;fill-opacity:1;stroke:none;stroke-width:1px;stroke-linecap:butt;stroke-linejoin:miter;stroke-opacity:1"
       id="text4347-2-1-3">
      <path
         d="m 443.44775,635.47748 0,3.36914 -3.32519,0 0,-1.69922 1.65527,0 0,-1.66992 1.66992,0 z m 0,-6.41602 0,2.98828 -1.66992,0 0,-2.98828 1.66992,0 z m 0,-6.38672 0,2.95899 -1.66992,0 0,-2.95899 1.66992,0 z m -6.75293,14.47266 0,1.69922 -2.98828,0 0,-1.69922 2.98828,0 z m -6.41601,0 0,1.69922 -2.95899,0 0,-1.69922 2.95899,0 z m 13.16894,-21.26953 0,3.36914 -1.66992,0 0,-1.66992 -1.65527,0 0,-1.69922 3.32519,0 z m -6.75293,0 0,1.69922 -2.98828,0 0,-1.69922 2.98828,0 z m -6.41601,0 0,1.69922 -2.95899,0 0,-1.69922 2.95899,0 z m -8.05664,19.59961 0,1.66992 1.66992,0 0,1.69922 -3.33984,0 0,-3.36914 1.66992,0 z m 0,-6.41602 0,2.98828 -1.66992,0 0,-2.98828 1.66992,0 z m 0,-6.38672 0,2.95899 -1.66992,0 0,-2.95899 1.66992,0 z m 1.66992,-6.79687 0,1.69922 -1.66992,0 0,1.66992 -1.66992,0 0,-3.36914 3.33984,0 z"
         style="font-style:normal;font-variant:normal;font-weight:normal;font-stretch:normal;font-size:30px;font-family:TakaoPGothic;-inkscape-font-specification:TakaoPGothic;fill:#787878;fill-opacity:1"
         id="path4914" />
    </g>
  </g>
</svg>
